<svg xmlns="http://www.w3.org/2000/svg" viewBox="0 0 189 250" width="189" height="250">
	<style>
		tspan { white-space:pre }
		.shp0 { fill: #014a99 } 
		.shp1 { fill: #ffffff } 
		.shp2 { fill: #0b2241 } 
	</style>
	<g >
		<path class="shp0" d="M82.66 0.26C81.76 0.36 79.49 0.52 77.62 0.61C75.74 0.7 73.73 0.83 73.14 0.89C72.55 0.96 71.59 1.07 71 1.14C70.41 1.21 69.08 1.32 68.04 1.39C67 1.47 65.36 1.63 64.39 1.76C63.42 1.89 61.88 2.07 60.98 2.15C60.08 2.24 59.18 2.35 58.97 2.41C58.76 2.46 58.08 2.57 57.46 2.64C56.83 2.72 55.07 3 53.55 3.26C52.03 3.53 49.87 3.88 48.76 4.04C47.65 4.2 46.35 4.43 45.86 4.56C45.38 4.68 43.45 5.07 41.58 5.43C39.71 5.79 37.1 6.38 35.78 6.74C34.47 7.1 32.94 7.48 32.38 7.58C31.83 7.67 30.24 8.06 28.85 8.44C27.47 8.82 25.03 9.58 23.44 10.13C21.84 10.68 20.2 11.23 19.78 11.35C19.37 11.47 18.06 11.92 16.88 12.36C15.71 12.79 13.72 13.61 12.47 14.18C11.23 14.74 9.07 15.76 7.69 16.44C6.3 17.12 4.43 18.08 3.53 18.58C2.63 19.08 1.46 19.77 0.95 20.1L0 20.71C0.15 139.95 0.21 146.88 0.57 149.37C0.79 150.9 1.1 153.11 1.26 154.29C1.42 155.47 1.87 158.03 2.28 159.97C2.68 161.92 3.2 164.25 3.42 165.15C3.65 166.05 4.12 167.76 4.46 168.94C4.81 170.12 5.35 171.88 5.68 172.85C6 173.83 6.71 175.76 7.27 177.15C7.82 178.54 8.55 180.3 8.89 181.06C9.23 181.82 9.75 182.96 10.03 183.59C10.32 184.21 10.72 185.01 10.91 185.35C11.11 185.7 11.7 186.84 12.23 187.88C12.76 188.92 13.4 190.11 13.65 190.53C13.9 190.95 14.43 191.91 14.84 192.68C15.24 193.44 16.44 195.37 17.5 196.97C18.56 198.57 19.42 199.96 19.41 200.06C19.41 200.17 19.57 200.31 19.78 200.38C19.99 200.45 20.16 200.62 20.16 200.76C20.16 200.9 20.87 202 21.73 203.22C22.6 204.43 24.56 207.02 26.09 208.96C27.63 210.91 29.16 212.79 29.5 213.14C29.84 213.49 31.02 214.78 32.13 216.01C33.24 217.24 35.28 219.28 36.68 220.55C38.07 221.82 39.87 223.42 40.69 224.12C41.5 224.81 43.54 226.4 45.21 227.66C46.89 228.91 49.22 230.55 50.4 231.3C51.58 232.05 53.05 232.99 53.68 233.39C54.3 233.79 55.12 234.25 55.5 234.42C55.88 234.58 56.2 234.81 56.2 234.91C56.2 235.02 56.34 235.1 56.51 235.09C56.68 235.09 57.28 235.39 57.83 235.76C58.39 236.13 59.86 236.94 61.11 237.56C62.36 238.17 63.77 238.9 64.26 239.17C64.75 239.44 65.88 240.01 66.78 240.43C67.68 240.86 68.87 241.41 69.43 241.67C69.98 241.93 71.4 242.56 72.58 243.08C73.75 243.6 75.51 244.36 76.48 244.76C77.45 245.17 78.98 245.76 79.88 246.08C80.78 246.4 82.2 246.91 83.03 247.22C83.87 247.53 85.68 248.11 87.07 248.51C88.45 248.91 90.15 249.41 90.85 249.62C91.57 249.83 93.11 249.99 94.44 250C96.16 250 97.41 249.83 99.22 249.34C100.58 248.98 102.93 248.26 104.45 247.73C105.98 247.21 107.62 246.64 108.11 246.46C108.59 246.28 110.69 245.45 112.77 244.62C114.85 243.78 116.78 242.96 117.05 242.79C117.33 242.62 117.84 242.4 118.19 242.3C118.53 242.2 121.37 240.86 124.49 239.33C127.61 237.79 130.61 236.24 131.17 235.87C131.72 235.51 132.51 235.05 132.93 234.84C133.35 234.64 134.31 234.09 135.07 233.62C135.83 233.14 137.76 231.9 139.36 230.85C140.95 229.8 142.65 228.63 143.14 228.24C143.62 227.86 144.81 226.95 145.78 226.22C146.75 225.5 147.6 224.84 147.67 224.76C147.74 224.68 148.88 223.69 150.19 222.55C151.51 221.42 153.79 219.26 155.27 217.76C156.75 216.26 158.94 213.89 160.15 212.5C161.36 211.11 162.53 209.69 162.75 209.34C162.98 209 163.23 208.66 163.31 208.59C163.39 208.52 164.13 207.6 164.95 206.55C165.77 205.5 167.21 203.51 168.15 202.13C169.09 200.75 170.63 198.43 171.58 196.97C172.52 195.51 173.86 193.35 174.56 192.17C175.26 190.99 176.17 189.34 176.6 188.51C177.03 187.68 178.04 185.62 178.84 183.95C179.65 182.27 180.49 180.45 180.71 179.9C180.94 179.36 181.38 178.29 181.7 177.53C182.02 176.76 182.94 174.15 183.75 171.72C184.56 169.29 185.22 167.13 185.22 166.92C185.23 166.71 185.45 165.8 185.72 164.9C185.98 164 186.26 162.97 186.32 162.63C186.39 162.28 186.68 160.86 186.96 159.47C187.24 158.08 187.54 156.43 187.61 155.81C187.69 155.18 187.81 154.44 187.87 154.17C187.94 153.89 188.22 151.7 188.5 149.31C188.99 145.06 189 143.35 189 82.83L189 20.71C186.56 19.14 185.76 18.68 185.66 18.68C185.56 18.69 185.16 18.47 184.78 18.21C184.4 17.94 183.18 17.28 182.07 16.73C180.96 16.17 179.6 15.53 179.05 15.29C178.49 15.05 177.41 14.57 176.65 14.21C175.89 13.86 175.04 13.48 174.76 13.36C174.48 13.25 173.8 12.97 173.25 12.74C172.7 12.51 170.26 11.66 167.83 10.85C165.41 10.04 162.57 9.13 161.53 8.83C160.49 8.54 158.9 8.12 158 7.91C157.1 7.69 155.35 7.24 154.1 6.89C152.85 6.55 151.26 6.17 150.57 6.04C149.88 5.92 148.52 5.65 147.55 5.43C146.58 5.21 145.33 4.97 144.77 4.9C144.22 4.83 143.6 4.71 143.39 4.64C143.18 4.57 142.44 4.4 141.75 4.27C141.06 4.14 139.92 3.96 139.23 3.88C138.54 3.8 136.55 3.48 134.82 3.16C133.09 2.84 131.5 2.58 131.29 2.57C131.08 2.56 129.5 2.38 127.76 2.17C126.03 1.96 124.27 1.72 123.86 1.65C123.44 1.58 122.31 1.46 121.34 1.39C120.37 1.31 119.12 1.2 118.57 1.15C118.01 1.09 116.65 0.98 115.54 0.89C114.43 0.81 111.2 0.58 108.36 0.37C104.98 0.13 99.94 0.01 93.74 0.03C88.55 0.05 83.56 0.15 82.66 0.26Z" />
		<path class="shp1" d="M86.94 8.23C85.21 8.28 81.81 8.44 79.38 8.59C76.95 8.74 73.1 9.03 70.81 9.23C68.53 9.43 65.63 9.72 64.39 9.87C63.14 10.01 60.93 10.3 59.47 10.51C58.02 10.71 55.07 11.17 52.92 11.52C50.77 11.87 47.6 12.45 45.86 12.79C44.13 13.14 40.67 13.94 38.18 14.57C35.68 15.19 31.32 16.37 28.48 17.19C25.63 18 21.61 19.25 19.53 19.96C17.45 20.66 14.73 21.68 13.48 22.21C12.23 22.74 10.51 23.59 9.64 24.09L8.06 25C8.22 145.86 8.22 146.37 8.75 150.13C9.04 152.21 9.47 154.99 9.69 156.31C9.92 157.63 10.5 160.36 10.99 162.37C11.47 164.39 12.33 167.46 12.9 169.19C13.47 170.93 14.54 173.8 15.28 175.57C16.03 177.34 17.12 179.78 17.72 181C18.32 182.21 19.36 184.23 20.03 185.48C20.71 186.73 22.11 189.12 23.14 190.78C24.17 192.45 25.76 194.89 26.66 196.21C27.56 197.53 29.41 200.09 30.76 201.89C32.12 203.7 34.58 206.71 36.23 208.59C37.88 210.46 40.41 213.09 41.85 214.43C43.3 215.77 45.44 217.65 46.62 218.62C47.8 219.58 49.86 221.15 51.21 222.11C52.55 223.08 55.05 224.73 56.75 225.8C58.46 226.86 60.47 228.08 61.24 228.51C62 228.94 64.15 230.08 66.02 231.03C67.9 231.99 71.07 233.51 73.08 234.41C75.09 235.31 77.92 236.53 79.38 237.11C80.84 237.7 82.37 238.33 82.78 238.52C83.2 238.7 85.47 239.51 87.82 240.3C91.73 241.62 92.3 241.74 94.37 241.76C96.17 241.77 97.11 241.63 98.91 241.07C100.16 240.69 101.86 240.14 102.69 239.85C103.52 239.57 106.13 238.56 108.49 237.62C110.84 236.68 114.7 235.04 117.05 233.97C119.41 232.9 122.87 231.19 124.74 230.18C126.61 229.17 128.5 228.13 128.94 227.87C129.37 227.61 130.62 226.87 131.71 226.22C132.8 225.57 134.9 224.21 136.37 223.19C137.85 222.17 140.34 220.32 141.91 219.07C143.48 217.82 146.23 215.37 148.02 213.64C149.81 211.9 152.26 209.34 153.46 207.95C154.66 206.57 156.61 204.18 157.79 202.65C158.97 201.12 160.58 198.96 161.35 197.85C162.13 196.74 163.95 193.96 165.4 191.67C166.84 189.38 168.88 185.85 169.93 183.84C170.97 181.82 172.47 178.7 173.26 176.89C174.04 175.09 175.19 172.13 175.81 170.33C176.42 168.52 177.31 165.57 177.78 163.76C178.25 161.96 178.76 159.8 178.91 158.96C179.07 158.13 179.35 156.54 179.55 155.43C179.74 154.32 180.1 151.93 180.35 150.13C180.78 147.03 180.81 143.31 180.81 85.86L180.81 24.87C177.88 23.2 176.12 22.37 175.01 21.93C173.91 21.5 171.35 20.59 169.34 19.9C167.33 19.22 163.99 18.17 161.91 17.55C159.83 16.94 157 16.14 155.61 15.77C154.22 15.4 151.79 14.77 150.19 14.37C148.6 13.97 145.71 13.31 143.77 12.9C141.83 12.49 138.82 11.93 137.09 11.64C135.36 11.36 132.29 10.9 130.28 10.61C128.27 10.33 126.18 10.04 125.62 9.97C125.07 9.91 122.97 9.68 120.96 9.48C118.95 9.27 114.92 8.94 112.01 8.73C109.1 8.53 102.98 8.32 98.41 8.26C93.83 8.2 88.67 8.19 86.94 8.23Z" />
		<path class="shp0" d="M84.55 13.13C81.64 13.24 77.55 13.46 75.47 13.61C73.39 13.77 70.16 14.07 68.29 14.27C66.42 14.47 64.04 14.75 63 14.89C61.96 15.02 59.58 15.36 57.71 15.65C55.84 15.93 52.72 16.45 50.78 16.8C48.84 17.14 46.51 17.59 45.61 17.79C44.71 17.99 42.22 18.57 40.07 19.07C37.92 19.57 34.4 20.48 32.26 21.09C30.11 21.7 26.54 22.81 24.32 23.57C22.1 24.32 19.1 25.4 17.64 25.96C16.18 26.52 14.46 27.22 13.8 27.51L12.6 28.03L12.59 86.49C14.26 86.19 15.31 85.98 16 85.83C16.7 85.68 17.43 85.46 17.64 85.36C17.85 85.25 18.68 85.06 19.5 84.94C20.31 84.82 21.02 84.64 21.07 84.53C21.12 84.43 21.51 84.34 21.92 84.34C22.34 84.34 22.88 84.24 23.12 84.1C23.36 83.97 24.19 83.75 24.95 83.61C25.71 83.47 26.79 83.25 27.34 83.12C27.9 82.99 29.2 82.69 30.24 82.45C31.28 82.21 32.53 81.92 33.01 81.8C33.5 81.69 34.74 81.41 35.78 81.18C36.82 80.95 38.07 80.67 38.56 80.55C39.04 80.43 40.23 80.15 41.2 79.93C42.17 79.71 43.42 79.41 43.97 79.26C44.53 79.12 45.72 78.88 46.62 78.73L48.26 78.46C49.63 76.07 50.99 74.41 52.16 73.23C53.82 71.58 54.88 70.77 56.83 69.7C58.21 68.94 60.42 67.95 61.74 67.51C63.06 67.06 69.46 65.49 75.98 64.03C82.49 62.56 89.07 61.07 90.59 60.71C92.12 60.35 96.6 59.32 100.55 58.43C104.5 57.53 109.49 56.4 111.64 55.91C113.78 55.43 117.81 54.52 120.58 53.89C123.35 53.26 126.02 52.64 126.5 52.51C126.99 52.38 129.46 51.82 131.99 51.26C134.51 50.71 136.75 50.25 136.96 50.25C137.28 50.25 137.34 50.81 137.34 53.79C137.34 55.73 137.43 57.37 137.53 57.43C137.63 57.49 138.4 57.37 139.23 57.17C140.06 56.97 141.2 56.7 141.75 56.57C142.3 56.44 143.5 56.16 144.4 55.96C145.3 55.75 146.54 55.46 147.17 55.3C147.79 55.14 148.53 54.96 148.81 54.91C149.08 54.85 149.82 54.7 150.44 54.56C151.07 54.42 152.32 54.14 153.22 53.93C154.12 53.72 155.19 53.48 155.61 53.39C156.03 53.3 157.1 53.03 158 52.77C158.9 52.52 160.15 52.24 160.78 52.15C161.4 52.05 162.25 51.88 162.67 51.75C163.08 51.63 165.01 51.18 166.95 50.75C168.89 50.32 171.04 49.85 171.74 49.7C172.43 49.56 173.22 49.35 173.5 49.24C173.78 49.14 174.54 48.98 175.2 48.89L176.4 48.74L176.27 27.91C170.61 25.63 166.98 24.3 164.56 23.49C162.13 22.68 158.96 21.67 157.5 21.25C156.04 20.83 152.76 19.98 150.19 19.36C147.63 18.73 144.68 18.05 143.64 17.83C142.6 17.61 140.22 17.16 138.35 16.82C136.48 16.48 134.21 16.09 133.31 15.94C132.41 15.79 130.54 15.5 129.15 15.29C127.76 15.09 124.59 14.69 122.09 14.41C119.6 14.13 115.06 13.74 112.01 13.53C108.96 13.33 102.73 13.11 98.15 13.04C93.58 12.98 87.46 13.02 84.55 13.13Z" />
		<path class="shp1" d="M24.95 34.34C24.95 34.9 24.95 36.55 24.95 38.01C24.95 39.46 24.95 41.11 24.95 41.67C24.95 42.65 24.97 42.68 25.83 42.68L26.71 42.68L26.71 38.89C29.72 38.89 29.74 38.88 29.67 38.19C29.61 37.53 29.54 37.5 28.16 37.44L26.71 37.37L26.71 34.85L30.74 34.85L30.74 33.33L24.95 33.33M38.43 33.77C38.01 34 37.42 34.48 37.11 34.83C36.81 35.19 36.42 35.88 36.26 36.36C36.1 36.85 36.03 37.82 36.1 38.51C36.17 39.2 36.41 40.14 36.63 40.59C36.86 41.04 37.41 41.67 37.86 41.98C38.42 42.36 39.17 42.57 40.19 42.64C41.21 42.71 41.95 42.62 42.46 42.36C42.88 42.15 43.36 41.82 43.53 41.63C43.78 41.36 43.77 41.18 43.49 40.78C43.15 40.29 43.13 40.29 42.17 40.75C41.52 41.06 40.91 41.17 40.32 41.07C39.83 40.99 39.15 40.62 38.81 40.26C38.37 39.8 38.15 39.24 38.08 38.42C38.02 37.69 38.14 36.91 38.39 36.36C38.61 35.88 39.08 35.34 39.43 35.16C39.78 34.99 40.35 34.85 40.7 34.85C41.04 34.85 41.67 35.02 42.08 35.23C42.76 35.56 42.88 35.56 43.22 35.23C43.43 35.02 43.6 34.71 43.6 34.53C43.6 34.36 43.26 34.02 42.84 33.78C42.35 33.49 41.57 33.34 40.63 33.34C39.78 33.35 38.88 33.52 38.43 33.77ZM55.69 38.01L55.69 42.68L61.49 42.68L61.49 41.16L57.71 41.16L57.71 38.64C60.2 38.64 60.23 38.62 60.23 37.88C60.23 37.14 60.2 37.12 58.97 37.12L57.71 37.12L57.71 34.85L61.49 34.85L61.49 33.33L55.69 33.33M67.54 38.01L67.54 42.68C71.28 42.68 72.4 42.54 73.02 42.28C73.54 42.07 74.23 41.64 74.55 41.34C74.87 41.03 75.3 40.39 75.5 39.9C75.7 39.41 75.86 38.53 75.86 37.94C75.85 37.35 75.73 36.56 75.58 36.17C75.44 35.79 75.07 35.21 74.76 34.89C74.46 34.56 73.79 34.08 73.27 33.81C72.54 33.44 71.78 33.33 69.93 33.33L67.54 33.33M81.9 38.01L81.9 42.68L83.54 42.55C83.65 38.1 83.74 37.63 84.04 37.63C84.26 37.63 84.82 38.43 85.36 39.52C85.88 40.56 86.45 41.47 86.63 41.54C86.8 41.61 87.14 41.57 87.38 41.44C87.62 41.32 88.28 40.35 88.83 39.29C89.38 38.23 89.98 37.37 90.15 37.37C90.38 37.37 90.47 38.07 90.47 40.03L90.47 42.68C91.67 42.68 92.03 42.52 92.11 42.3C92.18 42.09 92.23 40.13 92.23 37.94C92.23 35.75 92.14 33.82 92.04 33.64C91.93 33.44 91.5 33.34 90.98 33.39C90.41 33.43 90.01 33.64 89.84 33.96C89.69 34.24 89.04 35.52 88.38 36.81C87.73 38.09 87.08 39.08 86.94 39.02C86.8 38.95 86.06 37.64 85.3 36.11L83.92 33.33L81.9 33.33M100.67 33.73C100.26 33.95 99.71 34.32 99.45 34.55C99.19 34.78 98.81 35.32 98.59 35.73C98.36 36.18 98.19 37.12 98.19 38.01C98.19 38.9 98.36 39.83 98.59 40.28C98.81 40.69 99.25 41.28 99.58 41.59C99.9 41.89 100.48 42.26 100.86 42.41C101.24 42.56 102.12 42.68 102.82 42.68C103.51 42.68 104.44 42.53 104.89 42.34C105.35 42.16 106.08 41.56 106.53 41.02C107.01 40.43 107.41 39.61 107.5 39.02C107.59 38.46 107.57 37.49 107.46 36.87C107.34 36.15 106.98 35.42 106.49 34.88C106.06 34.41 105.4 33.87 105.02 33.68C104.64 33.49 103.68 33.33 102.88 33.33C102.06 33.34 101.1 33.51 100.67 33.73ZM113.65 38.01L113.65 42.68L115.16 42.68C115.16 37.85 115.25 37.12 115.48 37.11C115.65 37.11 116.47 37.98 117.31 39.06C118.14 40.14 119.13 41.39 119.51 41.85C119.95 42.38 120.43 42.68 120.83 42.68L121.46 42.68L121.46 33.33L119.95 33.33C119.92 36.95 119.83 38.23 119.73 38.51C119.56 38.96 119.39 38.83 118.3 37.48C117.61 36.64 116.6 35.37 116.05 34.65C115.28 33.66 114.87 33.35 114.34 33.34L113.65 33.33M127.26 34.09C127.26 34.83 127.3 34.85 128.58 34.91L129.91 34.97L130.03 42.68L131.8 42.68L131.92 34.97C134.53 34.85 134.57 34.83 134.57 34.09L134.57 33.33L127.26 33.33M142.06 33.71C141.68 33.92 141.15 34.32 140.87 34.6C140.59 34.87 140.19 35.44 139.99 35.86C139.78 36.28 139.61 37.24 139.61 38.01C139.61 38.77 139.74 39.65 139.89 39.96C140.05 40.27 140.47 40.85 140.84 41.25C141.2 41.64 141.81 42.12 142.19 42.32C142.57 42.52 143.51 42.68 144.27 42.68C145.15 42.68 146.02 42.49 146.66 42.17C147.24 41.88 147.94 41.24 148.3 40.66C148.79 39.88 148.94 39.28 148.96 38.07C148.97 37.08 148.83 36.18 148.58 35.67C148.36 35.22 147.76 34.54 147.25 34.15C146.48 33.57 146.03 33.45 144.54 33.39C143.31 33.35 142.54 33.45 142.06 33.71ZM154.98 38.01L154.98 42.68L156.74 42.68C156.84 38.47 156.98 37.25 157.12 37.21C157.26 37.16 157.6 37.46 157.88 37.86C158.16 38.26 159.09 39.51 159.96 40.63C161.31 42.39 161.64 42.68 162.29 42.68L163.04 42.68L163.04 33.33L161.28 33.33C161.28 38.17 161.21 38.64 160.9 38.64C160.69 38.64 160.27 38.27 159.96 37.82C159.66 37.36 158.72 36.17 157.89 35.15C156.66 33.67 156.23 33.32 155.67 33.32L154.98 33.33" />
		<path class="shp0" d="M69.55 38.01L69.55 41.16C71.02 41.17 71.81 41.05 72.26 40.91C72.77 40.75 73.22 40.37 73.46 39.9C73.67 39.48 73.84 38.63 73.84 38.01C73.84 37.38 73.69 36.57 73.52 36.21C73.35 35.84 72.89 35.39 72.51 35.2C72.13 35.01 71.31 34.85 70.69 34.85L69.55 34.85M101.64 35.11C101.34 35.23 100.86 35.71 100.57 36.17C100.26 36.65 100.05 37.41 100.05 38.01C100.05 38.56 100.25 39.36 100.5 39.77C100.75 40.19 101.29 40.68 101.7 40.87C102.14 41.07 102.81 41.15 103.38 41.06C104.01 40.96 104.54 40.65 104.96 40.15C105.45 39.57 105.59 39.11 105.59 38.13C105.59 37.39 105.41 36.56 105.15 36.11C104.9 35.69 104.37 35.24 103.95 35.1C103.53 34.96 102.97 34.85 102.69 34.86C102.41 34.87 101.94 34.98 101.64 35.11ZM142.97 35.19C142.67 35.38 142.25 35.81 142.03 36.14C141.81 36.48 141.64 37.31 141.63 38.07C141.63 39.12 141.75 39.55 142.25 40.15C142.67 40.65 143.2 40.96 143.83 41.06C144.4 41.15 145.06 41.07 145.49 40.87C145.88 40.68 146.35 40.3 146.53 40.03C146.7 39.75 146.93 39.18 147.02 38.76C147.12 38.35 147.09 37.55 146.95 36.99C146.81 36.44 146.49 35.78 146.24 35.53C145.99 35.29 145.27 35.03 144.65 34.96C143.92 34.88 143.32 34.96 142.97 35.19Z" />
		<path class="shp2" d="M175.01 48.85C174.88 48.89 174.31 49.05 173.75 49.2C173.2 49.34 172.24 49.58 171.61 49.72C170.99 49.86 168.89 50.33 166.95 50.75C165.01 51.18 163.08 51.63 162.67 51.75C162.25 51.88 161.4 52.05 160.78 52.15C160.15 52.24 158.9 52.52 158 52.77C157.1 53.03 156.03 53.3 155.61 53.39C155.19 53.48 154.12 53.72 153.22 53.93C152.32 54.14 151.07 54.42 150.44 54.56C149.82 54.7 149.08 54.85 148.81 54.91C148.53 54.96 147.79 55.14 147.17 55.3C146.54 55.46 145.3 55.75 144.4 55.96C143.5 56.16 142.3 56.44 141.75 56.57C141.2 56.7 140.06 56.97 139.23 57.17C138.4 57.37 137.63 57.49 137.53 57.43C137.43 57.37 137.31 59.79 137.28 62.81L137.21 68.29C135.46 68.75 133.81 69.13 132.43 69.44C131.04 69.74 129.23 70.15 128.39 70.33C127.56 70.52 124.9 71.13 122.47 71.69C120.05 72.25 116.7 73 115.04 73.37C113.37 73.74 111.33 74.21 110.5 74.41C109.67 74.61 101.73 76.41 92.86 78.42C83.99 80.43 75.15 82.42 73.21 82.86C71.27 83.29 68.94 83.85 68.04 84.1C67.14 84.35 66.23 84.75 66.02 84.99C65.82 85.23 65.36 86 65.02 86.71L64.39 87.98C60.28 88.87 58.3 89.31 57.33 89.52C56.36 89.74 54.6 90.14 53.42 90.4C52.25 90.67 50.29 91.12 49.08 91.4C47.86 91.69 46.7 91.92 46.49 91.92C46.18 91.92 46.12 91.48 46.11 89.46C46.11 88.1 46.3 85.92 46.52 84.6C46.75 83.28 47.2 81.4 47.52 80.43C47.85 79.46 48.05 78.6 47.98 78.54C47.91 78.47 47.21 78.54 46.42 78.71C45.63 78.87 44.53 79.13 43.97 79.27C43.42 79.41 42.17 79.71 41.2 79.93C40.23 80.15 39.04 80.43 38.56 80.55C38.07 80.67 36.82 80.95 35.78 81.18C34.74 81.41 33.5 81.69 33.01 81.8C32.53 81.92 31.28 82.21 30.24 82.45C29.2 82.69 27.9 82.99 27.34 83.12C26.79 83.25 25.71 83.47 24.95 83.61C24.19 83.75 23.36 83.97 23.12 84.1C22.88 84.24 22.34 84.34 21.92 84.34C21.51 84.34 21.12 84.43 21.07 84.53C21.02 84.64 20.31 84.82 19.5 84.94C18.68 85.06 17.85 85.25 17.64 85.36C17.43 85.46 16.7 85.68 16 85.83C15.31 85.98 14.26 86.19 13.67 86.3L12.59 86.49C12.63 104.49 12.74 117.96 12.85 128.03C13.01 142.32 13.15 147.03 13.46 149.49C13.68 151.23 14.02 153.5 14.22 154.55C14.42 155.59 14.87 157.69 15.22 159.22C15.57 160.74 16.33 163.47 16.9 165.28C17.48 167.08 18.46 169.87 19.08 171.46C19.71 173.06 20.84 175.68 21.59 177.27C22.34 178.87 23.65 181.43 24.49 182.95C25.34 184.48 27 187.27 28.19 189.14C29.38 191.02 31.7 194.48 33.35 196.84C34.99 199.2 36.94 201.82 37.67 202.65C38.4 203.48 40.51 205.66 42.36 207.49C44.22 209.32 46.65 211.59 47.75 212.54C48.86 213.49 50.85 215.08 52.16 216.06C53.48 217.05 55.98 218.82 57.71 219.99C59.44 221.16 62.05 222.81 63.5 223.66C64.96 224.5 67.68 225.99 69.55 226.98C71.42 227.96 74.66 229.52 76.73 230.44C78.81 231.36 82.44 232.85 84.8 233.76C87.15 234.67 89.82 235.65 90.72 235.94C91.9 236.33 93 236.47 94.63 236.47C96.57 236.47 97.28 236.34 99.54 235.56C101 235.06 103.83 234 105.84 233.2C107.85 232.41 110.32 231.37 111.32 230.9C112.33 230.43 113.2 230.05 113.27 230.05C113.34 230.05 114.96 229.27 116.86 228.32C118.77 227.38 121.12 226.17 122.09 225.64C123.06 225.11 125.11 223.94 126.63 223.03C128.15 222.12 130.65 220.53 132.17 219.48C133.7 218.44 136.19 216.62 137.72 215.45C139.24 214.28 141.23 212.69 142.13 211.91C143.03 211.14 145.35 208.91 147.3 206.96C149.24 205.01 151.34 202.78 151.97 202.02C152.6 201.26 154.2 199.1 155.51 197.22C156.83 195.35 158.4 193.07 159.01 192.17C159.61 191.27 161.08 188.94 162.26 186.99C163.44 185.05 165.32 181.64 166.45 179.42C167.57 177.2 169.07 173.9 169.78 172.1C170.48 170.29 171.42 167.73 171.85 166.41C172.29 165.09 173.03 162.54 173.5 160.73C173.97 158.93 174.58 156.2 174.85 154.67C175.13 153.14 175.47 150.81 175.62 149.49C175.77 148.18 176.01 145.22 176.15 142.93C176.3 140.42 176.4 120.83 176.4 93.75L176.4 48.74C175.52 48.77 175.15 48.81 175.01 48.85Z" />
		<path class="shp1" d="M133.06 51.03C131.32 51.43 129.17 51.92 128.27 52.12C127.37 52.32 124.65 52.94 122.22 53.5C119.79 54.06 115.54 55.03 112.77 55.66C110 56.28 104.5 57.53 100.55 58.43C96.6 59.32 92.12 60.35 90.59 60.71C89.07 61.07 82.49 62.56 75.98 64.03C69.46 65.49 63.06 67.06 61.74 67.51C60.42 67.95 58.22 68.94 56.85 69.7C55.48 70.46 53.62 71.77 52.72 72.6C51.82 73.43 50.6 74.8 50.02 75.63C49.43 76.46 48.72 77.6 48.44 78.16C48.16 78.71 47.69 79.91 47.41 80.81C47.12 81.71 46.71 83.47 46.5 84.72C46.28 85.97 46.11 88.1 46.11 89.46C46.12 91.48 46.18 91.92 46.49 91.92C46.7 91.92 47.86 91.69 49.08 91.4C50.29 91.12 52.25 90.67 53.42 90.4C54.6 90.14 56.36 89.74 57.33 89.52C58.3 89.31 60.28 88.87 61.74 88.56L64.39 87.98C65.36 86 65.82 85.23 66.02 84.99C66.23 84.75 67.14 84.35 68.04 84.1C68.94 83.85 71.27 83.29 73.21 82.86C75.15 82.42 83.99 80.43 92.86 78.42C101.73 76.41 109.67 74.61 110.5 74.41C111.33 74.21 113.37 73.74 115.04 73.37C116.7 73 120.05 72.25 122.47 71.69C124.9 71.13 127.56 70.52 128.39 70.33C129.23 70.15 131.04 69.74 132.43 69.44C133.81 69.13 135.46 68.75 136.08 68.59L137.21 68.29L137.34 50.25C136.46 50.3 134.79 50.63 133.06 51.03ZM130.79 88.63C130.3 88.74 128.26 89.2 126.25 89.65C124.24 90.1 121.75 90.66 120.71 90.9C119.67 91.15 115.93 92 112.39 92.8C108.86 93.61 105.34 94.41 104.58 94.58C103.82 94.76 101.1 95.38 98.53 95.97C95.97 96.55 93.19 97.18 92.36 97.36C91.53 97.55 89.88 97.92 88.7 98.18C87.53 98.45 84.46 99.14 81.9 99.72C79.34 100.3 75.99 101.07 74.47 101.42C72.94 101.77 70.56 102.33 69.17 102.66C67.79 102.99 64.84 103.6 62.62 104.01C60.4 104.43 57.57 105 56.32 105.28C55.07 105.55 53.54 105.97 52.92 106.19C52.3 106.41 51.39 106.83 50.9 107.12C50.42 107.42 49.59 108.06 49.06 108.56C48.52 109.06 47.81 110.01 47.48 110.67C47.15 111.33 46.7 112.52 46.49 113.32C46.17 114.57 46.11 118.45 46.11 140.97C46.12 155.38 46.2 167.17 46.3 167.17C46.41 167.17 50.35 166.2 55.06 165.02C59.77 163.84 63.83 162.82 64.07 162.75C64.49 162.63 64.52 161.46 64.58 143.24C64.63 125.34 64.67 123.8 65.08 123.04C65.32 122.59 65.78 122.05 66.09 121.84C66.4 121.63 69.6 120.78 73.21 119.96C76.81 119.13 80.18 118.39 80.7 118.32L81.65 118.18C81.79 165.03 81.81 165.84 82.31 167.55C82.59 168.52 83.19 170.06 83.65 170.96C84.11 171.86 84.79 173.06 85.17 173.61C85.56 174.17 86.42 175.14 87.1 175.78C87.77 176.42 89.06 177.42 89.96 178C90.86 178.59 92.51 179.37 93.62 179.74C95.47 180.36 95.96 180.41 99.67 180.41C103.52 180.41 103.9 180.36 108.23 179.33C110.73 178.75 113.68 178.04 114.79 177.78C115.89 177.51 120.2 176.53 124.36 175.61C128.52 174.69 132.01 173.89 132.11 173.84C132.21 173.78 132.3 169.65 132.3 164.65C132.3 156.11 132.27 155.56 131.86 155.67C131.62 155.73 130.68 155.96 129.78 156.17C128.88 156.38 124.8 157.3 120.71 158.22C116.62 159.14 110.81 160.45 107.79 161.13C104.78 161.81 102.09 162.37 101.81 162.37C101.53 162.37 101.02 162.23 100.67 162.06C100.32 161.88 99.98 161.6 99.91 161.43C99.85 161.25 99.79 150.51 99.8 137.56C99.8 124.61 99.83 113.99 99.86 113.95C99.89 113.91 102.87 113.21 106.47 112.39C110.07 111.58 117.3 109.93 122.53 108.74C127.77 107.54 132.1 106.57 132.17 106.57C132.24 106.57 132.3 102.47 132.3 97.47C132.3 90.35 132.23 88.39 131.99 88.41C131.81 88.43 131.27 88.53 130.79 88.63Z" />
		<path class="shp0" d="M122.09 121.51C121.68 121.66 120.94 122.08 120.46 122.44C119.97 122.8 119.18 123.5 118.69 124C118.21 124.49 117.36 125.45 116.8 126.12C116.25 126.79 115.45 127.74 115.04 128.23C114.62 128.73 113.91 129.51 113.46 129.97C113.01 130.43 112.17 131.12 111.59 131.5C110.72 132.08 110.27 132.19 109.01 132.18C108.17 132.17 106.91 131.95 106.22 131.7C105.53 131.44 104.11 130.67 103.07 129.97C102.03 129.28 101.04 128.5 100.86 128.25C100.69 127.99 100.38 127.78 100.17 127.78C99.84 127.78 99.79 128.69 99.81 134.53L99.83 141.29C102.96 144.07 104.42 145.07 105.59 145.63C107.31 146.45 107.63 146.52 109.24 146.43C110.44 146.36 111.41 146.13 112.27 145.7C113.11 145.29 114.87 143.76 117.63 141.04C119.88 138.82 121.87 136.95 122.04 136.89C122.21 136.84 122.4 136.72 122.47 136.64C122.54 136.56 123.11 136.21 123.73 135.86C124.62 135.37 125.23 135.23 126.53 135.23C127.44 135.23 128.46 135.35 128.8 135.51C129.13 135.66 129.88 136.03 130.47 136.33C131.06 136.63 131.66 136.81 131.8 136.74C131.95 136.66 132.05 134.3 132.05 130.43L132.05 124.24C130.92 122.97 130.05 122.32 129.37 121.97C128.32 121.43 127.76 121.33 125.5 121.28C124.04 121.25 122.51 121.35 122.09 121.51Z" />
		<path class="shp1" d="M88.89 191.05C88.45 191.28 88.1 191.75 87.93 192.36C87.77 192.88 87.72 193.62 87.8 194C87.88 194.38 88.26 194.93 88.64 195.21C89.06 195.52 89.71 195.72 90.28 195.72C90.8 195.71 91.45 195.59 91.73 195.45C92.01 195.32 92.41 194.83 92.64 194.38C92.89 193.86 92.99 193.26 92.89 192.74C92.8 192.27 92.42 191.65 91.98 191.29C91.5 190.89 90.92 190.66 90.41 190.67C89.95 190.67 89.27 190.84 88.89 191.05ZM95.5 194.51C94.96 194.87 94.59 195.36 94.49 195.83C94.41 196.25 94.43 196.93 94.53 197.35C94.64 197.77 94.97 198.33 95.27 198.61C95.64 198.96 96.16 199.12 96.94 199.12C97.9 199.12 98.18 198.99 98.8 198.3C99.32 197.72 99.54 197.21 99.54 196.59C99.54 195.92 99.33 195.5 98.66 194.82C98.07 194.23 97.54 193.94 97.07 193.94C96.67 193.94 95.97 194.2 95.5 194.51ZM62.88 199.82C62.61 199.98 62.3 200.24 62.19 200.38C62.09 200.52 62 200.83 62 201.07C61.99 201.32 62.16 201.52 62.37 201.52C62.58 201.52 62.86 201.29 63 201.01C63.14 200.73 63.51 200.5 63.82 200.49C64.13 200.49 64.53 200.66 64.7 200.87C64.93 201.16 64.95 201.45 64.76 201.96C64.63 202.34 63.89 203.28 63.12 204.04C62.36 204.8 61.74 205.63 61.74 205.87C61.74 206.26 61.99 206.31 63.95 206.25C65.96 206.19 66.15 206.14 66.15 205.68C66.15 205.27 65.96 205.17 65.08 205.11C64.42 205.07 64.01 204.93 64.02 204.73C64.02 204.56 64.23 204.25 64.47 204.04C64.71 203.83 65.16 203.32 65.47 202.9C65.79 202.49 66.04 201.81 66.03 201.39C66.02 200.97 65.93 200.51 65.83 200.35C65.73 200.2 65.39 199.94 65.08 199.79C64.77 199.63 64.26 199.5 63.95 199.5C63.63 199.51 63.15 199.65 62.88 199.82ZM76.94 199.94C76.63 200.18 76.26 200.69 76.12 201.07C75.97 201.46 75.85 202.25 75.85 202.84C75.85 203.43 75.95 204.26 76.09 204.67C76.22 205.09 76.62 205.63 76.97 205.87C77.33 206.11 77.93 206.31 78.31 206.31C78.69 206.3 79.24 206.11 79.54 205.87C79.84 205.63 80.2 205.17 80.36 204.86C80.51 204.55 80.64 203.67 80.64 202.9C80.64 202.14 80.51 201.26 80.36 200.95C80.2 200.63 79.84 200.18 79.54 199.94C79.24 199.7 78.66 199.51 78.25 199.51C77.83 199.51 77.24 199.7 76.94 199.94ZM109.42 200.37C108.6 201.06 108.42 201.35 108.61 201.64C108.8 201.93 108.99 201.96 109.37 201.77C109.65 201.63 109.93 201.52 110 201.52C110.07 201.52 110.15 202.57 110.19 203.85C110.24 206 110.29 206.19 110.75 206.19C111.23 206.19 111.26 206.02 111.26 202.91C111.26 200.16 111.2 199.62 110.87 199.55C110.66 199.51 110.01 199.88 109.42 200.37ZM123.39 200C122.99 200.3 122.61 200.93 122.45 201.58C122.29 202.19 122.25 203.14 122.35 203.79C122.48 204.55 122.77 205.15 123.26 205.62C123.73 206.07 124.26 206.31 124.76 206.31C125.27 206.31 125.77 206.07 126.23 205.62C126.7 205.16 126.98 204.55 127.09 203.79C127.18 203.16 127.15 202.2 127.02 201.64C126.89 201.09 126.49 200.38 126.14 200.06C125.79 199.75 125.17 199.49 124.78 199.49C124.38 199.49 123.76 199.72 123.39 200Z" />
		<path class="shp2" d="M77.37 200.98C77.2 201.26 77.08 202.17 77.09 203.01C77.1 204.01 77.24 204.68 77.49 204.92C77.7 205.13 78.03 205.3 78.23 205.3C78.43 205.3 78.77 205.13 78.98 204.92C79.2 204.72 79.45 204.12 79.53 203.59C79.62 203.04 79.54 202.22 79.34 201.64C79.07 200.84 78.86 200.61 78.33 200.55C77.88 200.5 77.57 200.63 77.37 200.98ZM123.86 201.05C123.58 201.43 123.44 202.06 123.45 202.9C123.47 203.6 123.65 204.42 123.86 204.73C124.09 205.09 124.45 205.28 124.8 205.24C125.11 205.21 125.5 204.89 125.67 204.55C125.85 204.2 125.99 203.46 125.99 202.9C125.99 202.35 125.85 201.61 125.67 201.26C125.5 200.92 125.12 200.6 124.83 200.55C124.5 200.51 124.13 200.7 123.86 201.05Z" />
		<path class="shp1" d="M99 204.46C98.76 204.75 98.66 205.61 98.67 207.3C98.68 208.74 98.85 210.23 99.08 210.98C99.3 211.68 99.75 212.81 100.08 213.49C100.4 214.17 100.99 214.99 101.37 215.32C101.75 215.64 102.15 215.91 102.25 215.92C102.35 215.92 102.66 215.68 102.94 215.38C103.27 215.03 103.48 214.38 103.54 213.54C103.6 212.83 103.5 211.45 103.33 210.48C103.15 209.51 102.64 207.92 102.19 206.94C101.74 205.97 101.13 204.92 100.83 204.61C100.54 204.3 100.08 204.04 99.82 204.04C99.56 204.04 99.19 204.23 99 204.46ZM89.64 205.24C89.42 205.48 89.11 206.25 88.94 206.94C88.74 207.76 88.67 209.18 88.76 210.98C88.87 213.09 89.06 214.19 89.55 215.53C89.9 216.5 90.48 217.55 90.84 217.87C91.19 218.18 91.67 218.41 91.9 218.37C92.14 218.34 92.56 217.91 92.85 217.42C93.3 216.65 93.37 216.12 93.37 213.26C93.37 211.2 93.23 209.5 93.01 208.71C92.82 208.02 92.45 207.02 92.19 206.5C91.94 205.98 91.47 205.38 91.16 205.17C90.85 204.97 90.47 204.79 90.32 204.8C90.16 204.8 89.86 205 89.64 205.24Z" />
	</g>
</svg>