<svg xmlns="http://www.w3.org/2000/svg" viewBox="0 0 176 250" width="176" height="250">
	<style>
		tspan { white-space:pre }
		.shp0 { fill: #c08e5d } 
		.shp1 { fill: #19171a } 
		.shp2 { fill: #fafeff } 
		.shp3 { fill: #7a302f } 
	</style>
	<g >
		<path class="shp0" d="M79.92 0.2C77.78 0.25 73.58 0.44 70.59 0.63C67.59 0.81 63.19 1.17 60.79 1.41C58.4 1.66 55.32 2.01 53.95 2.19C52.58 2.38 49.78 2.8 47.73 3.14C45.68 3.48 41.55 4.25 38.56 4.86C35.57 5.47 31.23 6.43 28.92 7.01C26.61 7.59 22.97 8.55 20.83 9.15C18.7 9.75 15.23 10.77 13.13 11.43L9.31 12.62C9.33 48.53 9.36 49.56 9.87 49.42C10.17 49.34 10.8 49.2 11.27 49.11L12.13 48.94L12.28 14.87C14.21 14.19 15.96 13.64 17.41 13.21C18.87 12.78 22.51 11.8 25.5 11.03C28.49 10.26 33.18 9.16 35.92 8.58C38.65 7.99 42.99 7.16 45.55 6.73C48.12 6.3 52.95 5.59 56.28 5.16C59.62 4.73 65.21 4.14 68.72 3.84C73.41 3.45 78.39 3.3 87.53 3.3C96.67 3.31 101.71 3.45 106.5 3.85C110.09 4.15 115.76 4.74 119.1 5.16C122.43 5.57 127.33 6.27 129.98 6.7C132.63 7.14 137.21 7.98 140.16 8.58C143.11 9.18 148.22 10.35 151.51 11.19C154.8 12.03 159.01 13.18 160.85 13.76L164.2 14.81L164.18 48.63C165.27 49.04 165.97 49.25 166.44 49.36L167.29 49.56L167.31 12.62C158.98 10.09 154.05 8.73 150.97 7.97C147.89 7.22 143.27 6.18 140.71 5.66C138.14 5.15 134.85 4.51 133.4 4.24C131.95 3.96 129.78 3.59 128.58 3.42C127.38 3.24 124.93 2.88 123.14 2.63C121.34 2.38 117.14 1.9 113.81 1.57C110.47 1.24 105.37 0.82 102.46 0.65C99.55 0.48 94.16 0.29 90.49 0.22C86.81 0.16 82.05 0.15 79.92 0.2Z" />
		<path class="shp1" d="M79.27 3.23C79.2 3.3 76.9 3.45 74.16 3.57C71.43 3.7 69.05 3.85 68.88 3.9C68.71 3.96 67.24 4.1 65.61 4.21C63.99 4.32 62.31 4.45 61.88 4.51C61.45 4.57 59.21 4.84 56.9 5.13C54.6 5.41 52.22 5.71 51.62 5.8C51.02 5.89 50.18 6.02 49.75 6.1C49.33 6.18 48.07 6.38 46.95 6.55C45.84 6.71 44.51 6.93 44 7.02C43.49 7.12 42.72 7.27 42.29 7.36C41.86 7.45 41.23 7.57 40.89 7.63C40.55 7.69 39.85 7.82 39.34 7.92C38.82 8.02 38.12 8.16 37.78 8.23C37.44 8.3 36.04 8.59 34.67 8.88C33.3 9.17 31.9 9.46 31.56 9.52C31.22 9.59 29.54 10.01 27.83 10.46C26.12 10.91 24.41 11.33 24.02 11.4C23.64 11.48 22.97 11.67 22.54 11.85C22.12 12.02 21.77 12.09 21.77 12C21.77 11.92 20.82 12.18 19.67 12.58C18.51 12.98 17.46 13.33 17.34 13.36C17.21 13.38 16.06 13.72 14.79 14.11C12.48 14.8 12.48 14.81 12.29 16.05C12.18 16.74 12.11 24.24 12.13 32.73C12.15 41.22 12.15 48.34 12.14 48.55C12.14 48.76 11.53 49.08 10.81 49.26C10.08 49.44 8.09 49.96 6.39 50.43C4.69 50.9 2.97 51.52 2.58 51.82C2.1 52.19 1.86 52.69 1.86 53.38C1.86 53.94 2.03 54.57 2.25 54.79C2.47 55.01 2.5 55.18 2.33 55.17C2.16 55.17 1.71 55.45 1.32 55.79C0.89 56.18 0.62 56.78 0.62 57.36C0.62 57.87 0.76 58.36 0.93 58.45C1.12 58.54 0.97 59.09 0.57 59.77C-0.09 60.93 -0.09 60.95 0.49 61.82C0.82 62.31 1.4 62.77 1.79 62.84C2.2 62.92 2.48 63.19 2.47 63.51C2.47 63.81 2.71 64.38 3.02 64.77C3.33 65.17 4 65.54 4.51 65.6C5.26 65.68 5.5 65.91 5.75 66.74C5.97 67.46 6.34 67.89 6.94 68.1C7.61 68.34 8.33 68.29 9.9 67.88C11.04 67.58 12 67.37 12.04 67.41C12.07 67.45 12.11 90 12.13 117.52C12.14 145.04 12.22 167.87 12.3 168.25C12.41 168.81 12.58 168.91 13.14 168.75C13.52 168.64 14.47 168.17 15.24 167.71C16.01 167.25 18.35 165.86 20.45 164.64C22.54 163.41 24.39 162.41 24.57 162.41C24.74 162.41 24.88 162.27 24.88 162.09C24.88 161.92 24.98 161.79 25.11 161.79C25.24 161.8 26.6 161.08 28.14 160.2C29.68 159.31 31.22 158.4 31.56 158.16C31.9 157.92 32.29 157.73 32.42 157.73C32.55 157.73 32.83 158.22 33.04 158.83C33.25 159.43 33.57 159.91 33.74 159.9C33.92 159.89 33.91 160.05 33.7 160.29C33.51 160.51 32.88 160.94 32.3 161.24C31.72 161.55 30.34 162.34 29.23 163.01C28.12 163.67 25.18 165.38 22.71 166.82C20.23 168.25 17.57 169.79 16.8 170.23C16.03 170.68 14.69 171.46 13.84 171.97L12.28 172.89C12.28 178.05 12.32 183.69 12.36 188.75C12.4 193.8 12.54 197.94 12.67 197.94C12.8 197.94 14.44 197.04 16.33 195.94C18.21 194.85 20.31 193.6 20.99 193.19C21.67 192.77 22.86 192.09 23.63 191.68C24.4 191.27 25.1 190.85 25.19 190.76C25.27 190.67 26.6 189.88 28.14 189C29.68 188.12 31.43 187.13 32.03 186.8C32.63 186.46 34.52 185.37 36.23 184.38C37.94 183.39 39.86 182.25 40.5 181.84C41.14 181.44 41.74 181.11 41.82 181.11C41.91 181.11 43.02 180.44 44.3 179.63L46.62 178.15C48.29 179.6 48.78 180.19 48.8 180.41C48.81 180.62 48.68 180.8 48.51 180.8C48.34 180.8 47.6 181.17 46.88 181.63C46.15 182.09 45.13 182.7 44.62 182.99C44.11 183.28 41.45 184.82 38.71 186.41C35.98 188.01 33.32 189.55 32.81 189.84C32.29 190.13 31.17 190.79 30.32 191.3C29.46 191.81 28.13 192.58 27.36 193.02C26.59 193.45 23.55 195.23 20.6 196.97C17.65 198.7 15.17 200.12 15.08 200.12C15 200.12 14.37 200.48 13.68 200.9L12.44 201.68L12.44 227.56C15.21 226.02 16.36 225.34 16.79 225.04C17.22 224.75 18.69 223.89 20.06 223.13C21.42 222.36 24.29 220.71 26.43 219.46C28.57 218.2 31.23 216.66 32.34 216.03C33.45 215.4 36.11 213.86 38.25 212.61C40.39 211.36 42.62 210.06 43.22 209.71C43.82 209.37 45.92 208.14 47.89 206.98C49.85 205.82 51.99 204.58 52.63 204.21C53.27 203.85 54.25 203.29 54.81 202.97C55.36 202.65 58.06 201.08 60.79 199.49C63.53 197.9 67.2 195.78 68.95 194.78C71.6 193.26 72.34 192.98 73.31 193.07C73.95 193.14 74.79 193.35 75.17 193.54C75.56 193.73 75.8 194.03 75.72 194.2C75.63 194.37 74.41 195.16 73 195.95C71.59 196.75 70.01 197.64 69.5 197.94C68.99 198.24 67.66 199.01 66.54 199.65C65.43 200.28 64.38 200.91 64.21 201.05C64.04 201.19 62.78 201.9 61.41 202.63C60.05 203.36 58.72 204.13 58.46 204.33C58.2 204.54 56.66 205.45 55.04 206.36C53.41 207.28 51.73 208.26 51.31 208.55C50.88 208.83 49.76 209.49 48.82 210.01C47.88 210.52 46.41 211.34 45.55 211.82C44.7 212.3 42.32 213.7 40.27 214.93C38.22 216.15 35.56 217.69 34.36 218.34C33.16 218.99 32.04 219.64 31.87 219.77C31.7 219.9 31.07 220.29 30.47 220.63C29.87 220.97 26.8 222.76 23.63 224.59C20.47 226.43 16.66 228.65 15.16 229.54L12.44 231.14L12.44 244.7C14.49 243.66 16.17 242.68 17.49 241.85C18.82 241.02 19.97 240.34 20.06 240.34C20.14 240.34 21.23 239.73 22.47 238.99C23.71 238.25 25.35 237.28 26.12 236.84C26.89 236.4 28.01 235.76 28.61 235.42C29.21 235.07 30.82 234.15 32.18 233.36C33.55 232.57 35.16 231.64 35.76 231.28C36.36 230.92 37.69 230.14 38.71 229.54C39.74 228.93 41.63 227.87 42.91 227.17C44.19 226.47 45.63 225.65 46.1 225.33C46.57 225.01 47.02 224.75 47.11 224.75C47.2 224.75 48.56 223.96 50.14 223C51.72 222.04 53.65 220.91 54.42 220.5C55.19 220.09 56.03 219.62 56.28 219.46C56.54 219.29 57.94 218.47 59.39 217.64C60.85 216.8 63.78 215.09 65.92 213.85C68.06 212.6 70.79 211.02 71.99 210.33C73.18 209.64 74.93 208.62 75.87 208.07C76.81 207.52 78.28 206.67 79.14 206.19C79.99 205.71 81.46 204.89 82.4 204.38C83.34 203.86 84.15 203.32 84.19 203.18C84.23 203.04 84.41 202.93 84.58 202.93C84.75 202.93 85.59 202.51 86.45 202C87.3 201.48 88.14 201.06 88.31 201.06C88.48 201.06 90.55 202.19 92.9 203.56C95.25 204.94 97.21 206.06 97.25 206.06C97.29 206.05 97.92 206.42 98.65 206.89C99.38 207.35 100.74 208.14 101.68 208.64C102.62 209.14 104.16 210.01 105.1 210.57C106.04 211.13 109.3 213.05 112.33 214.82C115.37 216.6 119.2 218.82 120.85 219.76C122.49 220.71 125.96 222.71 128.54 224.21C131.13 225.72 133.28 226.95 133.32 226.94C133.36 226.94 135.46 228.14 137.99 229.62C140.51 231.1 143.06 232.6 143.66 232.94C144.26 233.29 145.17 233.83 145.68 234.14C146.2 234.46 146.96 234.89 147.39 235.1C147.82 235.31 148.73 235.83 149.41 236.25C150.1 236.67 151.99 237.78 153.61 238.72C155.24 239.67 157.27 240.82 158.12 241.3C158.98 241.77 160.65 242.73 161.85 243.43L164.03 244.71C164.21 231.5 164.2 231.45 163.5 230.88C163.1 230.57 161.94 229.82 160.92 229.22C159.89 228.62 158.35 227.76 157.5 227.3C156.64 226.84 155.91 226.36 155.87 226.23C155.82 226.1 155.65 226 155.48 226C155.31 226 152.93 224.66 150.19 223.04C147.45 221.41 145.15 220.07 145.06 220.07C144.97 220.07 144.31 219.7 143.58 219.24C142.86 218.79 141.84 218.17 141.33 217.88C140.82 217.59 139.49 216.82 138.37 216.18C137.26 215.54 135.93 214.77 135.42 214.47C134.91 214.17 132.6 212.84 130.29 211.51C127.98 210.18 125.46 208.73 124.69 208.3C123.92 207.87 123.15 207.41 122.98 207.28C122.81 207.15 121.27 206.25 119.56 205.29C117.85 204.32 116.35 203.54 116.22 203.54C116.09 203.55 115.99 203.41 115.99 203.24C115.99 203.07 115.74 202.86 115.44 202.78C115.14 202.7 114.48 202.38 113.96 202.07C113.45 201.76 112.12 200.98 111.01 200.34C109.9 199.69 108.78 199.03 108.52 198.87C108.27 198.7 106.8 197.85 105.26 196.96C103.72 196.08 102.07 195.17 101.6 194.93C101.13 194.7 100.8 194.34 100.86 194.12C100.92 193.91 101.37 193.63 101.87 193.5C102.36 193.37 103.16 193.19 103.63 193.11C104.14 193.02 104.81 193.17 105.33 193.5C105.79 193.8 106.59 194.3 107.11 194.6C107.63 194.9 108.3 195.22 108.6 195.3C108.9 195.38 109.14 195.59 109.14 195.76C109.14 195.93 109.28 196.07 109.46 196.07C109.63 196.07 111.13 196.87 112.8 197.84C114.47 198.81 116.84 200.21 118.08 200.95C119.32 201.7 120.41 202.31 120.49 202.31C120.58 202.31 122.4 203.36 124.54 204.64C126.67 205.93 128.49 206.98 128.58 206.98C128.67 206.98 130.17 207.84 131.92 208.89C133.68 209.93 135.67 211.1 136.35 211.49C137.04 211.88 138.86 212.93 140.4 213.83C141.93 214.73 143.68 215.75 144.28 216.09C144.88 216.43 145.51 216.82 145.68 216.95C145.85 217.07 146.76 217.6 147.7 218.12C148.64 218.63 151.51 220.28 154.08 221.78C156.64 223.28 159.3 224.82 159.99 225.21C160.67 225.59 161.89 226.28 162.71 226.73L164.18 227.56L164.17 210.57C159.96 208.27 157.76 207.02 156.57 206.32C155.37 205.61 153.97 204.79 153.46 204.49C152.94 204.19 151.61 203.42 150.5 202.77C149.39 202.13 148.06 201.36 147.55 201.07C147.03 200.77 143.82 198.91 140.4 196.94C136.98 194.97 133.62 193.03 132.93 192.64C132.25 192.24 130.95 191.45 130.06 190.88C129.16 190.31 128.32 189.83 128.19 189.82C128.06 189.82 126.5 188.94 124.72 187.88C122.95 186.81 121.44 185.77 121.38 185.55C121.32 185.34 121.76 184.88 122.36 184.54C123.05 184.15 123.71 183.99 124.15 184.11C124.53 184.22 125.58 184.79 126.48 185.36C127.38 185.94 128.18 186.41 128.27 186.41C128.35 186.41 129.16 186.85 130.06 187.39C130.95 187.93 132.95 189.1 134.49 189.99C136.03 190.87 139.53 192.9 142.26 194.5C145 196.09 147.69 197.65 148.25 197.98C148.8 198.3 149.78 198.87 150.42 199.23C151.07 199.6 152.22 200.25 152.99 200.68C153.76 201.11 154.53 201.56 154.7 201.7C154.87 201.83 155.92 202.46 157.03 203.1C158.14 203.74 160.14 204.88 161.46 205.63C162.79 206.37 163.94 206.98 164.03 206.98C164.11 206.98 164.18 192.6 164.18 175.03C164.18 157.46 164.11 143.08 164.03 143.08C163.94 143.08 163.14 143.52 162.24 144.06C161.34 144.6 159.42 145.73 157.96 146.56C156.51 147.4 155.29 148.08 155.24 148.08C155.2 148.07 153.27 149.22 150.95 150.64C148.13 152.36 146.63 153.11 146.42 152.9C146.21 152.69 146.24 152.08 146.52 151.04L146.93 149.5C154.64 144.95 157.44 143.33 158.12 142.96C158.8 142.6 160.48 141.62 161.85 140.8L164.34 139.31C164.34 118.24 164.23 113.78 164.03 113.78C163.86 113.79 163.02 114.18 162.16 114.66C161.31 115.14 160.26 115.73 159.83 115.98C159.4 116.22 158.98 116.51 158.9 116.61C158.81 116.71 157.97 117.22 157.03 117.74C156.09 118.26 153.78 119.57 151.9 120.64C150.02 121.72 148.34 122.65 148.17 122.72C148 122.79 147.75 122.45 147.61 121.98C147.47 121.5 147.3 120.86 147.22 120.56C147.13 120.18 147.45 119.78 148.25 119.28C148.89 118.88 150.04 118.2 150.81 117.77C151.58 117.34 154.91 115.42 158.2 113.51L164.18 110.04C164.18 90.47 164.08 84.82 163.95 84.87C163.82 84.91 162.88 85.41 161.85 85.97C160.83 86.53 159.43 87.33 158.74 87.75C158.06 88.18 156.59 89.03 155.48 89.66C154.37 90.28 153.07 91.05 152.6 91.37C152.13 91.69 151.68 91.96 151.59 91.96C151.5 91.96 150.21 92.68 148.71 93.56C147.22 94.45 145.5 95.48 144.9 95.86C144.31 96.24 142.87 97.06 141.72 97.68C140.56 98.3 139.57 98.71 139.5 98.58C139.44 98.45 139.76 97.51 140.22 96.48C140.92 94.92 141.31 94.46 142.59 93.71C143.44 93.22 144.76 92.47 145.53 92.03C146.3 91.6 147.28 91.01 147.7 90.72C148.13 90.43 149.6 89.56 150.97 88.78C152.34 88 153.95 87.08 154.54 86.75C155.14 86.41 155.91 85.97 156.25 85.77C156.6 85.56 158.49 84.44 160.45 83.28L164.03 81.16C164.16 69.33 164.28 67.61 164.57 67.51C164.79 67.44 165.83 67.62 166.89 67.9C168.33 68.29 169.04 68.34 169.69 68.1C170.28 67.89 170.66 67.45 170.87 66.74C171.12 65.91 171.36 65.68 172.11 65.6C172.63 65.54 173.3 65.17 173.6 64.77C173.91 64.38 174.15 63.85 174.14 63.59C174.14 63.33 174.55 62.95 175.06 62.73C175.93 62.37 176 62.22 176 60.79C176 59.93 175.86 59.16 175.69 59.07C175.48 58.97 175.48 58.71 175.69 58.29C175.86 57.95 176 57.39 176 57.04C176 56.7 175.67 56.11 175.28 55.72C174.69 55.15 174.58 54.78 174.69 53.77C174.81 52.74 174.7 52.42 174.08 51.9C173.67 51.56 171.59 50.81 169.46 50.23C167.33 49.66 165.27 49.06 164.88 48.91L164.18 48.63L164.2 14.81C156.36 12.51 152.68 11.49 150.97 11.05C149.26 10.61 146.88 10.04 145.68 9.78C144.48 9.52 143.23 9.25 142.88 9.18C142.54 9.1 140.93 8.77 139.31 8.44C137.68 8.1 135.93 7.75 135.42 7.65C134.91 7.55 133.58 7.34 132.47 7.18C131.35 7.01 129.26 6.67 127.8 6.42C126.35 6.17 124.56 5.88 123.84 5.79C123.11 5.69 121.99 5.55 121.35 5.47C120.71 5.4 119.41 5.24 118.47 5.13C117.53 5.01 116.55 4.88 116.3 4.83C116.04 4.78 114.71 4.64 113.34 4.52C111.97 4.4 110.65 4.26 110.39 4.22C110.13 4.17 108.24 4.02 106.19 3.9C104.14 3.77 102.11 3.61 101.68 3.55C101.25 3.48 96.07 3.35 90.15 3.27C84.24 3.18 79.34 3.17 79.27 3.23Z" />
		<path class="shp2" d="M77.43 12.79C76.66 12.91 75.5 13.25 74.86 13.52C74.22 13.8 73.03 14.64 72.22 15.4C71.41 16.15 70.41 17.45 70 18.28C69.35 19.6 69.27 20.12 69.39 22.29C69.49 24.24 69.7 25.09 70.33 26.18C70.77 26.96 71.67 28.07 72.33 28.66C73 29.24 74.17 30.01 74.94 30.37C76 30.86 76.98 31.01 78.98 31.01C81.21 31.02 81.89 30.89 83.34 30.19C84.28 29.73 85.6 28.75 86.27 28C86.94 27.26 87.78 26.02 88.12 25.25C88.55 24.28 88.74 23.18 88.74 21.66C88.74 20 88.57 19.15 88.02 18.08C87.63 17.31 86.59 16 85.71 15.18C84.73 14.27 83.57 13.52 82.71 13.26C81.94 13.03 80.75 12.77 80.07 12.69C79.39 12.62 78.2 12.66 77.43 12.79ZM92.92 17.67C92.86 20.38 92.83 23.44 92.85 24.47C92.87 25.89 93.07 26.7 93.7 27.82C94.17 28.66 95.09 29.67 95.83 30.16C96.98 30.92 97.42 31.02 99.66 31.02C101.9 31.02 102.34 30.92 103.49 30.16C104.23 29.67 105.15 28.66 105.62 27.82C106.39 26.46 106.49 25.86 106.86 20.42C107.08 17.16 107.26 14.25 107.27 13.95C107.28 13.51 107 13.4 105.8 13.4L104.33 13.4C103.74 24.18 103.52 25.97 103.13 26.73C102.85 27.29 102.2 27.95 101.68 28.21C101.17 28.47 100.26 28.68 99.66 28.68C99.06 28.68 98.15 28.47 97.64 28.21C97.13 27.95 96.5 27.32 96.24 26.81C95.87 26.06 95.78 24.57 95.8 19.4L95.83 12.94L93.01 12.75M112.42 14.11C112.35 14.32 112 18 111.65 22.29C111.3 26.57 111.01 30.47 111.01 30.94C111.01 31.75 111.09 31.8 112.41 31.8L113.81 31.8C114.05 26.48 114.26 24.87 114.43 24.78C114.6 24.7 115.15 25.29 115.64 26.11C116.14 26.92 117.13 28.64 117.84 29.93C118.56 31.21 119.17 32.3 119.2 32.34C119.23 32.38 119.98 32.52 120.88 32.65C121.77 32.78 122.51 32.82 122.51 32.73C122.51 32.64 121.53 30.89 120.33 28.83C119.13 26.78 118.15 24.99 118.15 24.86C118.16 24.73 118.62 24.49 119.17 24.32C119.73 24.16 120.55 23.63 121 23.15C121.45 22.68 121.98 21.97 122.17 21.59C122.36 21.2 122.51 20.22 122.51 19.4C122.5 18.42 122.27 17.57 121.81 16.85C121.38 16.19 120.53 15.51 119.56 15.07C118.71 14.67 117.45 14.29 116.76 14.21C116.08 14.12 114.85 13.98 114.03 13.89C113 13.78 112.5 13.84 112.42 14.11ZM59.31 14.24C58.34 14.32 58.15 14.45 58.16 15.04C58.16 15.43 58.58 19.39 59.08 23.85C59.58 28.3 60.07 32.02 60.18 32.11C60.28 32.19 62.07 32.08 64.15 31.86C66.24 31.64 67.98 31.42 68.03 31.39C68.08 31.36 68.01 30.79 67.88 30.13L67.63 28.93L62.5 29.3C62.27 27.25 61.98 24.34 61.72 21.51C61.46 18.68 61.19 15.84 61.12 15.2C61.06 14.55 60.88 14.05 60.74 14.08C60.6 14.11 59.96 14.18 59.31 14.24ZM44.2 20.03C43.33 22.81 41.98 27.34 41.21 30.08C40.44 32.82 39.85 35.09 39.89 35.12C39.93 35.15 40.54 35.08 41.24 34.96C41.95 34.85 42.6 34.69 42.69 34.6C42.78 34.52 43.11 33.46 43.43 32.26L44 30.08C48.82 29.27 50.6 29.02 51.07 29.01C51.8 28.99 52.1 29.28 53.02 30.86L54.11 32.73C56.52 32.73 57.22 32.66 57.22 32.57C57.22 32.49 56.29 30.91 55.15 29.07C54.02 27.22 51.5 23.3 49.55 20.34C47.61 17.38 45.97 14.96 45.91 14.96C45.85 14.96 45.08 17.24 44.2 20.03Z" />
		<path class="shp1" d="M76.03 15.87C75.34 16.18 74.41 16.85 73.95 17.34C73.48 17.83 72.89 18.76 72.62 19.4C72.36 20.05 72.14 21.17 72.14 21.9C72.14 22.67 72.45 23.87 72.89 24.78C73.41 25.87 74.09 26.65 75.15 27.36C75.97 27.91 77.21 28.46 77.89 28.56C78.58 28.66 79.63 28.64 80.23 28.52C80.82 28.39 81.8 28.05 82.4 27.75C83 27.45 83.85 26.8 84.28 26.3C84.72 25.81 85.26 24.84 85.49 24.16C85.72 23.47 85.85 22.12 85.79 21.15C85.7 19.82 85.44 19.06 84.73 18.06C84.2 17.29 83.2 16.42 82.4 16.01C81.41 15.5 80.47 15.29 79.14 15.29C77.97 15.29 76.8 15.5 76.03 15.87ZM114.97 18.28C114.85 19.11 114.72 20.36 114.67 21.04C114.6 22.16 114.66 22.3 115.36 22.39C115.79 22.45 116.6 22.41 117.15 22.31C117.71 22.21 118.51 21.78 118.94 21.35C119.42 20.87 119.72 20.22 119.72 19.64C119.72 19.12 119.41 18.34 119.02 17.89C118.49 17.28 117.93 17.04 116.75 16.92L115.19 16.76" />
		<path class="shp2" d="M36.85 17.5C36.16 17.66 35.51 17.89 35.39 18.01C35.28 18.14 34.6 20.97 33.9 24.31C33.19 27.66 32.54 30.46 32.45 30.55C32.36 30.63 32.18 30.49 32.03 30.24C31.89 29.98 30.28 27.67 28.45 25.09C26.62 22.52 25.03 20.32 24.92 20.2C24.81 20.08 24.09 20.13 23.32 20.32C22.55 20.51 21.89 20.72 21.84 20.78C21.8 20.84 23.35 23.02 25.28 25.64C27.22 28.25 29.91 31.97 31.27 33.91C32.63 35.84 33.82 37.31 33.92 37.18C34.02 37.05 34.48 35.05 34.95 32.73C35.41 30.42 36.35 26.21 37.03 23.38C37.71 20.55 38.31 17.99 38.37 17.69C38.42 17.39 38.38 17.16 38.28 17.18C38.18 17.19 37.53 17.34 36.85 17.5ZM131.39 17.53C131.32 17.75 130.76 21.43 130.14 25.72C129.52 30 129.06 33.53 129.11 33.54C129.16 33.56 129.73 33.67 130.37 33.78C131.01 33.89 131.53 33.87 131.54 33.74C131.54 33.62 131.82 31.9 132.16 29.93C132.5 27.95 132.77 26.27 132.77 26.18C132.77 26.1 133.5 26.15 134.41 26.29C135.31 26.44 136.22 26.61 136.43 26.68C136.66 26.76 136.95 26.34 137.15 25.64C137.34 25 137.44 24.45 137.39 24.43C137.33 24.41 136.38 24.23 135.27 24.03C134.15 23.84 133.22 23.64 133.2 23.61C133.17 23.57 133.28 22.73 133.43 21.74C133.65 20.35 133.83 19.95 134.25 19.95C134.55 19.95 136.06 20.17 137.6 20.44C140.37 20.92 140.41 20.92 141.88 20.2C142.7 19.81 143.36 19.38 143.36 19.25C143.35 19.12 142.97 18.94 142.49 18.86C142.02 18.77 139.58 18.35 137.05 17.92C134.53 17.49 132.25 17.14 131.99 17.14C131.73 17.14 131.46 17.32 131.39 17.53ZM145.99 20.37C145.31 20.59 144.33 21 143.82 21.26C143.3 21.52 142.36 22.35 141.71 23.1C141.07 23.85 140.33 25.1 140.08 25.87C139.82 26.64 139.61 27.84 139.61 28.52C139.61 29.21 139.82 30.4 140.07 31.17C140.32 31.94 141.14 33.28 141.88 34.13C142.75 35.13 143.86 35.97 144.93 36.45C146.18 37.01 147.19 37.21 148.85 37.23C150.08 37.24 151.22 37.11 151.38 36.94C151.54 36.77 151.77 36.07 151.9 35.38C152.12 34.17 152.11 34.14 151.39 34.4C150.99 34.54 149.89 34.72 148.95 34.81C147.57 34.92 146.97 34.81 145.86 34.23C145.1 33.83 144.07 33.02 143.58 32.42C142.96 31.66 142.63 30.85 142.51 29.77C142.41 28.91 142.42 27.68 142.53 27.04C142.64 26.37 143.16 25.38 143.74 24.73C144.29 24.1 145.31 23.33 145.99 23.02C146.68 22.71 147.73 22.46 148.33 22.45C148.92 22.45 149.9 22.58 150.5 22.75C151.1 22.91 152.18 23.54 152.91 24.15C153.64 24.75 154.29 25.14 154.37 25.02C154.44 24.89 154.6 24.2 154.73 23.49L154.95 22.2C151.62 20.56 150.35 20.19 149.1 20.09C148 20.01 146.73 20.12 145.99 20.37Z" />
		<path class="shp1" d="M46.5 21.59C46.42 21.8 46.01 23.13 45.57 24.55L44.78 27.12C45.86 27.12 47.02 26.97 48.04 26.8C49.07 26.63 49.98 26.42 50.06 26.34C50.15 26.26 49.51 25.07 48.64 23.7C47.76 22.32 46.96 21.2 46.84 21.2C46.72 21.2 46.57 21.37 46.5 21.59Z" />
		<path class="shp0" d="M69.34 40.86C67.38 41 63.95 41.26 61.72 41.46C59.5 41.65 55.37 42.08 52.55 42.41C49.73 42.75 46.51 43.16 45.4 43.34C44.29 43.51 41.63 43.94 39.49 44.28C37.35 44.62 33.09 45.4 30.01 46.01C26.93 46.62 21.96 47.68 18.97 48.37C15.98 49.07 11.36 50.25 8.71 51C6.06 51.76 3.77 52.48 3.63 52.6C3.49 52.73 3.45 53.15 3.55 53.54C3.65 53.93 3.97 54.24 4.28 54.24C4.57 54.25 5.52 54.04 6.37 53.78C7.23 53.52 8.21 53.31 8.55 53.3C8.89 53.29 10.12 53.96 11.27 54.78C12.42 55.6 13.36 56.34 13.36 56.42C13.37 56.51 10.9 57.28 7.88 58.14C4.29 59.16 2.28 59.88 2.05 60.23C1.79 60.65 1.82 60.89 2.18 61.25C2.59 61.68 2.96 61.63 5.75 60.81C7.46 60.31 9.77 59.67 10.88 59.39C12 59.11 13.15 58.82 13.45 58.74C13.89 58.63 13.95 58.74 13.79 59.3C13.68 59.69 13.2 60.85 12.71 61.88C11.84 63.73 11.81 63.75 9.72 64.41C8.57 64.77 7.48 65.3 7.31 65.57C7.08 65.93 7.13 66.21 7.46 66.56C7.89 67.01 8.4 66.93 13.06 65.65C15.88 64.88 19.8 63.87 21.77 63.42C23.73 62.96 26.6 62.32 28.14 61.99C29.68 61.67 33.46 60.92 36.54 60.33C39.62 59.74 43.6 59.05 45.4 58.79C47.2 58.53 50.97 58.03 53.8 57.69C56.62 57.34 61.37 56.85 64.37 56.6C67.36 56.34 71.96 56.02 74.59 55.89L79.37 55.64C80.55 54.19 81.72 52.68 82.73 51.36L84.58 48.94L92.04 48.94C93.24 50.51 94.4 52.02 95.4 53.3L97.22 55.64C108.03 56.25 114.38 56.77 118.32 57.19C122.25 57.61 127.43 58.24 129.82 58.59C132.22 58.95 135.79 59.52 137.75 59.87C139.72 60.22 142.31 60.7 143.51 60.95C144.7 61.19 146.94 61.66 148.48 62C150.02 62.33 153.1 63.03 155.32 63.55C157.54 64.08 161.18 65.02 163.41 65.64C165.63 66.27 167.73 66.85 168.07 66.93C168.42 67.01 168.9 66.85 169.16 66.55C169.51 66.16 169.54 65.91 169.28 65.51C169.09 65.23 168.04 64.75 166.95 64.45C165.86 64.14 164.88 63.79 164.78 63.67C164.68 63.54 164.15 62.38 163.6 61.1C163.06 59.81 162.65 58.72 162.7 58.68C162.74 58.63 164.32 59.02 166.2 59.53C168.09 60.05 170.53 60.74 171.65 61.08C173.26 61.56 173.79 61.61 174.26 61.31C174.64 61.07 174.78 60.75 174.65 60.4C174.54 60.1 174.06 59.7 173.59 59.52C173.12 59.34 170.6 58.6 167.99 57.88C165.38 57.16 163.24 56.51 163.23 56.42C163.23 56.34 164.24 55.55 165.49 54.67L167.76 53.08C171.13 54.06 172.36 54.25 172.66 54.13C172.96 54.02 173.2 53.65 173.2 53.3C173.2 52.91 172.88 52.55 172.35 52.34C171.88 52.16 169.18 51.37 166.36 50.59C163.54 49.82 158.22 48.51 154.54 47.69C150.87 46.87 146.67 45.98 145.22 45.71C143.76 45.44 141.31 45 139.77 44.72C138.23 44.45 135.23 43.97 133.09 43.65C130.95 43.32 126.82 42.77 123.92 42.42C121.01 42.07 116.11 41.58 113.03 41.32C109.95 41.07 105.27 40.77 102.61 40.65L97.8 40.44C95.38 43.04 94.12 44.46 93.44 45.27L92.2 46.75L84.73 47.09C80.88 42.64 79.58 41.16 79.37 40.93C79.1 40.64 78.1 40.54 75.95 40.57C74.28 40.59 71.31 40.72 69.34 40.86Z" />
		<path class="shp1" d="M75.57 42.7L73.87 42.86L77.89 47.09C80.67 47.08 81.47 46.93 81.47 46.76C81.47 46.59 80.88 45.76 80.15 44.93C79.42 44.09 78.48 43.21 78.05 42.97C77.52 42.68 76.72 42.59 75.57 42.7ZM96.86 44.63C95.89 45.69 95.1 46.63 95.12 46.73C95.14 46.83 95.96 46.95 96.94 47C98.69 47.09 98.76 47.06 99.98 45.75C100.67 45.02 101.54 44.03 101.91 43.56L102.6 42.71L98.62 42.71M67.16 43.25C67.16 43.38 68 44.36 69.03 45.43C70.27 46.73 71.13 47.38 71.6 47.36C71.98 47.35 72.84 47.25 73.5 47.13L74.71 46.91L71.05 42.99C68.04 43.01 67.16 43.12 67.16 43.25ZM103.7 44.97L101.94 46.91L105.57 47.47C108.58 44.38 109.45 43.38 109.45 43.25C109.45 43.12 108.56 43.02 107.46 43.02L105.46 43.02M60.85 43.63L59.97 43.8C63.89 47.69 63.91 47.7 65.69 47.7C66.67 47.7 67.54 47.59 67.62 47.46C67.7 47.33 66.89 46.35 65.83 45.27C64.12 43.54 63.78 43.32 62.81 43.39C62.21 43.43 61.33 43.54 60.85 43.63ZM110.69 45.33C108.95 47.06 108.76 47.35 109.3 47.49C109.64 47.58 110.41 47.68 111.01 47.71C111.61 47.73 112.28 47.74 112.5 47.72C112.72 47.71 113.63 46.93 114.52 46.01C115.41 45.08 116.18 44.17 116.22 43.98C116.26 43.79 115.98 43.63 115.6 43.62C115.21 43.61 114.4 43.54 113.8 43.46C112.79 43.34 112.53 43.49 110.69 45.33ZM54.68 44.22C54.06 44.33 53.47 44.49 53.37 44.58C53.26 44.66 53.98 45.53 54.97 46.51C56.75 48.29 56.75 48.29 58.69 48.3C59.76 48.31 60.71 48.18 60.79 48C60.88 47.83 60.04 46.85 58.93 45.82C57.81 44.79 56.66 43.97 56.36 43.99C56.06 44.01 55.31 44.11 54.68 44.22ZM117.52 46.06C116.51 47.04 115.75 47.95 115.84 48.08C115.92 48.21 116.79 48.32 117.77 48.32C119.51 48.31 119.61 48.27 121.53 46.52C122.93 45.25 123.38 44.67 123.09 44.5C122.86 44.38 121.93 44.27 121.02 44.27C119.42 44.26 119.29 44.33 117.52 46.06ZM47.19 45.11C46.72 45.16 46.33 45.3 46.33 45.43C46.33 45.56 47.21 46.48 48.28 47.47L50.22 49.27C53.11 48.98 53.99 48.84 54.03 48.76C54.07 48.69 53.24 47.82 52.19 46.84C50.61 45.35 50.08 45.04 49.16 45.03C48.55 45.03 47.66 45.06 47.19 45.11ZM124.42 46.82L122.43 48.78C124.3 49.12 125.2 49.22 125.63 49.23C126.14 49.23 127.08 48.63 128.42 47.42C129.54 46.42 130.31 45.53 130.13 45.43C129.96 45.34 129.05 45.17 128.11 45.06L126.4 44.86M41 46.09C40.38 46.2 39.78 46.4 39.68 46.52C39.58 46.65 39.95 47.17 40.5 47.67C41.06 48.17 41.93 48.95 42.45 49.41C43.27 50.13 43.56 50.21 44.93 50.05C45.79 49.95 46.59 49.77 46.72 49.64C46.85 49.51 46.71 49.13 46.4 48.78C46.09 48.44 45.22 47.64 44.45 47C43.69 46.36 42.86 45.85 42.6 45.87C42.34 45.88 41.62 45.98 41 46.09ZM132 47.14C131.14 47.87 130.17 48.71 129.82 49.01C129.48 49.31 129.27 49.62 129.36 49.71C129.44 49.79 130.35 49.94 131.38 50.05L133.24 50.25C136.28 47.42 137.05 46.51 136.91 46.4C136.78 46.29 135.96 46.11 135.11 46C133.61 45.81 133.5 45.85 132 47.14ZM33.39 47.54C32.99 47.71 32.76 47.99 32.89 48.16C33.01 48.33 33.92 49.14 34.9 49.95C36.47 51.25 36.82 51.41 37.7 51.24C38.26 51.13 38.99 51 39.34 50.95C39.68 50.9 40.17 50.85 40.42 50.84C40.71 50.83 40.47 50.48 39.83 49.96C39.24 49.48 38.26 48.64 37.65 48.08C36.74 47.24 36.32 47.08 35.33 47.14C34.66 47.19 33.79 47.37 33.39 47.54ZM138.22 48.75C137.19 49.69 136.47 50.57 136.62 50.71C136.76 50.85 137.04 50.99 137.24 51.01C137.44 51.03 138.05 51.14 138.61 51.24C139.4 51.39 139.88 51.25 140.84 50.58C141.51 50.11 142.52 49.31 143.09 48.82C144.01 48.02 144.06 47.89 143.58 47.65C143.28 47.5 142.37 47.31 141.56 47.22C140.12 47.05 140.04 47.09 138.22 48.75ZM26.91 48.74L25.37 49.1C28.48 51.55 29.56 52.36 29.77 52.47C29.99 52.59 30.93 52.51 31.87 52.29C32.82 52.08 33.59 51.83 33.59 51.75C33.59 51.66 33.2 51.31 32.74 50.97C32.27 50.62 31.4 49.89 30.79 49.34C30.19 48.79 29.42 48.35 29.07 48.36C28.73 48.37 27.76 48.54 26.91 48.74ZM145.91 49.33C145.24 49.89 144.28 50.66 143.78 51.04C143.29 51.42 142.95 51.8 143.04 51.88C143.12 51.96 143.96 52.2 144.9 52.4L146.61 52.76L151.21 49.1C148.85 48.5 147.94 48.33 147.66 48.32C147.38 48.32 146.59 48.77 145.91 49.33ZM77.16 50.07C76.71 50.61 75.99 51.51 75.56 52.06C75.13 52.62 74.75 53.2 74.71 53.35C74.66 53.49 74.87 53.63 75.17 53.65C75.47 53.66 76.28 53.65 76.96 53.62C77.79 53.59 78.41 53.34 78.83 52.89C79.18 52.52 79.91 51.58 80.47 50.81C81.02 50.04 81.48 49.34 81.47 49.25C81.47 49.17 80.68 49.1 79.72 49.1C78.15 49.1 77.9 49.19 77.16 50.07ZM95.98 49.25L95.1 49.41L98.26 53.62L101.99 53.62C100.79 51.68 100.05 50.71 99.58 50.2C99.08 49.65 98.35 49.23 97.8 49.18C97.28 49.13 96.47 49.16 95.98 49.25ZM71.24 49.62C70.91 49.74 70.1 50.65 69.43 51.65C68.76 52.64 68.13 53.6 68.03 53.77C67.92 53.97 68.55 54.05 69.76 53.99C70.86 53.94 71.76 53.74 71.87 53.52C71.98 53.32 72.26 52.94 72.51 52.68C72.75 52.42 73.23 51.76 73.56 51.2C73.89 50.64 74.27 50.18 74.4 50.18C74.52 50.19 74.63 49.98 74.63 49.72C74.63 49.36 74.3 49.27 73.23 49.33C72.46 49.37 71.56 49.5 71.24 49.62ZM102 49.48C101.99 49.61 102.37 50.28 102.83 50.97C103.29 51.65 103.87 52.42 104.11 52.68C104.36 52.94 104.65 53.31 104.75 53.52C104.86 53.72 105.82 53.97 106.89 54.06C108.39 54.2 108.79 54.15 108.63 53.85C108.52 53.64 107.82 52.58 107.08 51.51C106.33 50.44 105.55 49.55 105.34 49.53C105.12 49.51 104.28 49.44 103.47 49.37C102.66 49.3 102 49.35 102 49.48ZM65.72 49.86C64.83 49.95 64.06 50.1 63.99 50.19C63.92 50.27 63.38 51.11 62.79 52.04C62.21 52.97 61.54 53.92 61.31 54.14C60.98 54.48 61.24 54.55 62.79 54.55L64.68 54.55C66.53 52.01 67.23 50.96 67.43 50.58C67.63 50.19 67.68 49.83 67.55 49.78C67.43 49.73 66.6 49.77 65.72 49.86ZM19.77 50.33L18.56 50.65C22.21 53.42 23.13 53.9 23.79 53.89C24.3 53.89 25.19 53.72 25.77 53.51L26.82 53.15C24.47 51.23 23.61 50.49 23.4 50.27C23.19 50.05 22.56 49.9 22 49.94C21.44 49.97 20.44 50.15 19.77 50.33ZM109.21 50.58C109.43 50.97 110.1 52.01 110.7 52.89C111.78 54.49 111.81 54.5 113.58 54.61C114.85 54.68 115.36 54.6 115.36 54.32C115.36 54.1 115.15 53.72 114.9 53.46C114.64 53.2 114.43 52.85 114.43 52.68C114.43 52.51 114.33 52.33 114.2 52.29C114.07 52.25 113.58 51.69 113.11 51.04C112.3 49.94 112.16 49.88 110.53 49.88C108.82 49.88 108.81 49.88 109.21 50.58ZM152.83 50.71C152.15 51.18 151.38 51.76 151.12 52C150.87 52.25 150.41 52.57 150.11 52.72C149.81 52.87 149.65 53.1 149.75 53.23C149.86 53.35 150.17 53.5 150.45 53.54C150.74 53.59 151.6 53.72 152.37 53.83C153.38 53.98 153.91 53.92 154.28 53.59C154.57 53.35 155.26 52.8 155.82 52.37C156.38 51.94 157.13 51.36 157.48 51.08C158.1 50.59 158.07 50.56 156.49 50.22C155.59 50.03 154.68 49.87 154.47 49.87C154.25 49.87 153.52 50.25 152.83 50.71ZM116.22 50.41C115.76 50.48 115.73 50.61 116.02 51.2C116.21 51.59 116.88 52.64 117.5 53.55C118.35 54.78 118.82 55.2 119.41 55.2C119.83 55.21 120.64 55.28 121.19 55.35C121.75 55.43 122.2 55.38 122.2 55.25C122.2 55.12 121.52 54.04 120.7 52.84C119.36 50.87 119.09 50.64 117.99 50.49C117.31 50.4 116.52 50.37 116.22 50.41ZM57.17 51.04C56.92 51.34 56.2 52.4 55.57 53.38C54.94 54.37 54.49 55.17 54.57 55.17C54.66 55.17 55.01 55.17 55.35 55.17C55.69 55.17 56.43 55.18 56.98 55.19C57.86 55.2 58.14 54.98 59.11 53.55C59.72 52.64 60.39 51.59 60.59 51.2C60.94 50.51 60.91 50.5 59.28 50.5C58.08 50.5 57.49 50.65 57.17 51.04ZM53.78 50.91C53.7 50.99 53.03 51.12 52.28 51.21C51.27 51.33 50.72 51.6 50.18 52.26C49.78 52.75 49.07 53.84 48.59 54.69L47.73 56.23C50.5 55.9 51.49 55.62 51.71 55.41C51.93 55.19 52.56 54.21 53.11 53.23C53.66 52.24 54.07 51.28 54.02 51.1C53.97 50.92 53.86 50.84 53.78 50.91ZM122.98 52.29C123.41 52.93 123.89 53.74 124.04 54.08C124.2 54.43 124.59 54.99 124.91 55.33C125.33 55.77 125.98 55.98 127.12 56.03C128.55 56.1 128.71 56.05 128.53 55.56C128.41 55.26 127.8 54.25 127.18 53.3C126.29 51.97 125.8 51.54 124.98 51.35C124.39 51.22 123.53 51.12 123.05 51.12L122.19 51.12M13.3 52C11.87 52.51 11.85 52.54 12.53 52.97C12.91 53.22 13.29 53.51 13.37 53.62C13.46 53.73 14.19 54.26 15 54.81L16.48 55.8L20.21 54.71C16.84 52.17 15.61 51.44 15.31 51.45C15.02 51.46 14.11 51.71 13.3 52ZM158.68 53.04L156.46 54.71L160.14 55.8L164.61 52.52C162.95 51.88 162.12 51.62 161.69 51.54C161.09 51.42 160.38 51.77 158.68 53.04ZM128.98 52.03C129.01 52.13 129.67 53.23 130.44 54.47C131.68 56.47 131.98 56.76 133.01 56.95C133.65 57.07 134.39 57.13 134.64 57.08C134.9 57.03 135.18 56.93 135.27 56.87C135.35 56.8 134.83 55.76 134.1 54.56C133.37 53.35 132.64 52.37 132.47 52.37C132.3 52.37 132.12 52.35 132.08 52.33C132.03 52.31 131.31 52.19 130.47 52.07C129.62 51.95 128.95 51.93 128.98 52.03ZM44.6 52.27C44.24 52.35 43.69 52.78 43.37 53.24C43.05 53.71 42.4 54.82 41.92 55.72L41.05 57.36C42.85 57.11 43.73 56.97 44.16 56.89C44.62 56.8 45.15 56.33 45.47 55.72C45.76 55.16 46.36 54.11 46.79 53.38L47.58 52.06C45.77 52.12 44.95 52.2 44.6 52.27ZM38.46 53.3C37.81 53.43 37.06 53.8 36.8 54.12C36.54 54.44 35.92 55.51 35.42 56.5C34.92 57.49 34.52 58.33 34.52 58.37C34.52 58.41 35.19 58.35 36 58.23C36.81 58.11 37.61 58.01 37.78 58.01C37.95 58 38.68 56.98 39.41 55.73C40.13 54.48 40.73 53.35 40.73 53.23C40.73 53.1 40.49 53.01 40.19 53.03C39.89 53.05 39.11 53.17 38.46 53.3ZM137.13 55.45C138.47 57.84 138.59 57.95 139.93 58.23C140.7 58.39 141.5 58.44 141.7 58.33C141.96 58.19 141.71 57.46 140.85 55.88C140.17 54.63 139.51 53.56 139.39 53.5C139.26 53.43 138.38 53.28 137.44 53.17L135.72 52.95M31.92 54.55L30.11 55.02C28.47 58.4 27.99 59.45 27.99 59.54C27.99 59.62 28.73 59.59 29.62 59.46C30.77 59.3 31.41 59.03 31.8 58.53C32.09 58.14 32.69 57.09 33.12 56.19C33.54 55.29 33.86 54.45 33.82 54.32C33.77 54.19 32.92 54.29 31.92 54.55ZM142.73 54.4C142.73 54.48 143.22 55.53 143.82 56.73C144.6 58.3 145.14 59.01 145.76 59.24C146.23 59.43 147.07 59.53 147.63 59.48L148.64 59.38C146.47 55.16 146.15 54.8 145.22 54.54C144.62 54.38 143.81 54.24 143.43 54.24C143.04 54.24 142.73 54.31 142.73 54.4Z" />
		<path class="shp0" d="M4.92 55.6C3.78 55.96 2.69 56.44 2.51 56.66C2.27 56.94 2.32 57.2 2.72 57.63C3.25 58.2 3.33 58.19 5.99 57.4C7.49 56.95 8.78 56.4 8.87 56.19C8.95 55.97 8.95 55.59 8.86 55.33C8.77 55.05 8.36 54.88 7.85 54.89C7.38 54.91 6.06 55.23 4.92 55.6ZM167.75 55.56C167.62 56.01 167.7 56.35 167.96 56.5C168.19 56.63 169.29 57.02 170.4 57.36C171.51 57.71 172.81 57.99 173.28 57.99C173.82 57.98 174.19 57.78 174.3 57.43C174.39 57.13 174.28 56.73 174.07 56.53C173.85 56.33 172.69 55.87 171.49 55.52C170.29 55.16 169.01 54.87 168.63 54.87C168.19 54.86 167.88 55.11 167.75 55.56Z" />
		<path class="shp1" d="M26.41 55.61C26.33 55.68 25.86 55.81 25.34 55.89C24.83 55.98 24.2 56.13 23.94 56.23C23.69 56.34 22.95 57.51 22.31 58.84C21.67 60.17 21.18 61.28 21.22 61.3C21.27 61.33 22.03 61.19 22.92 60.99C23.81 60.79 24.67 60.49 24.84 60.32C25.01 60.15 25.65 59.06 26.26 57.9C26.87 56.74 27.36 55.73 27.36 55.64C27.36 55.56 27.18 55.49 26.95 55.49C26.72 55.49 26.48 55.54 26.41 55.61ZM149.25 55.65C149.25 55.73 149.76 56.74 150.38 57.9C150.99 59.06 151.63 60.15 151.79 60.32C151.96 60.49 152.78 60.77 153.62 60.94C154.64 61.15 155.16 61.15 155.16 60.94C155.17 60.77 154.68 59.61 154.08 58.37C153.48 57.13 152.81 56.1 152.6 56.09C152.39 56.07 151.93 56.01 151.59 55.95C151.25 55.89 150.58 55.76 150.1 55.67C149.63 55.58 149.24 55.57 149.25 55.65ZM18.5 57.48C17.38 57.81 17.12 58.1 15.93 60.33C15.19 61.7 14.64 62.85 14.68 62.91C14.73 62.96 15.54 62.84 16.48 62.65L18.19 62.3C20.61 57.49 20.74 57.05 20.29 57.08C19.99 57.09 19.19 57.27 18.5 57.48ZM157.1 59.62C157.77 61.03 158.49 62.21 158.69 62.25C158.89 62.28 159.68 62.46 160.45 62.64C161.22 62.82 161.89 62.9 161.93 62.82C161.97 62.73 161.48 61.58 160.84 60.26C159.7 57.9 159.65 57.85 158.12 57.46C157.27 57.24 156.41 57.05 156.22 57.05C156.03 57.05 156.43 58.2 157.1 59.62Z" />
		<path fill-rule="evenodd" class="shp0" d="M9.64 61.2C10.24 61.24 10.42 61.43 10.42 62.02C10.42 62.69 10.16 62.87 8.24 63.48C7.04 63.87 5.68 64.19 5.21 64.2C4.71 64.21 4.29 64.02 4.2 63.75C4.11 63.49 4.11 63.1 4.19 62.89C4.28 62.68 5.36 62.19 6.6 61.82C7.85 61.45 9.21 61.16 9.64 61.2ZM166.9 61.1C167.2 61.1 168.43 61.38 169.63 61.72C170.82 62.07 171.98 62.53 172.2 62.74C172.44 62.98 172.5 63.35 172.35 63.71C172.16 64.17 171.89 64.26 171.02 64.13C170.43 64.05 169.13 63.75 168.15 63.47C167.04 63.16 166.29 62.76 166.17 62.42C166.07 62.12 166.06 61.7 166.16 61.49C166.26 61.27 166.59 61.1 166.9 61.1ZM11.74 67.36C12.05 67.34 12.13 77.37 12.16 116.51C12.18 143.55 12.18 166.49 12.16 167.47C12.14 168.46 12.23 169.27 12.36 169.27C12.49 169.28 14.83 167.97 17.57 166.36C20.31 164.76 23.17 163.09 23.94 162.66C24.71 162.22 26.95 160.93 28.92 159.79C30.89 158.65 32.53 157.72 32.57 157.72C32.62 157.73 32.87 158.33 33.13 159.06C33.39 159.78 33.5 160.47 33.36 160.57C33.23 160.67 28.92 163.19 23.79 166.15C18.66 169.12 13.93 171.88 12.13 173L12.32 185.4C12.43 192.21 12.57 197.86 12.63 197.94C12.68 198.03 14.38 197.13 16.39 195.95C18.41 194.77 20.69 193.42 21.46 192.95C22.23 192.48 23.48 191.74 24.25 191.31C25.02 190.89 27.33 189.56 29.39 188.36C31.44 187.17 35.01 185.1 37.31 183.76C39.62 182.43 42.7 180.64 46.8 178.26L48.98 180.42L45.24 182.59C43.19 183.78 38.29 186.63 34.36 188.91C30.43 191.19 24.48 194.65 21.14 196.58C17.81 198.52 14.49 200.46 12.44 201.68L12.44 227.56L13.14 227.2C13.52 227 15.17 226.05 16.79 225.08C18.42 224.11 21.07 222.57 22.7 221.65C24.32 220.73 27.12 219.11 28.92 218.05C30.71 216.99 34.49 214.79 37.31 213.15C40.14 211.52 49.16 206.29 72.3 192.88L73.95 193.31C74.86 193.54 75.61 193.87 75.62 194.05C75.63 194.22 72.16 196.37 67.9 198.83C63.65 201.29 57.58 204.81 54.42 206.66C51.25 208.51 45.66 211.77 41.98 213.91C38.3 216.05 30.15 220.8 12.42 231.14L12.43 237.92C12.43 241.65 12.51 244.7 12.59 244.7C12.68 244.7 13.9 244.02 15.31 243.18C16.73 242.34 21.03 239.84 24.88 237.61C28.72 235.39 33.2 232.79 34.83 231.85C36.45 230.91 40.65 228.48 44.16 226.46C47.66 224.44 52.77 221.49 55.51 219.91C58.24 218.33 62.23 216.02 64.37 214.78C66.51 213.54 72.52 210.07 77.74 207.06C82.95 204.05 87.46 201.44 87.74 201.25C88.17 200.97 89.28 201.5 93.81 204.14C96.85 205.92 99.98 207.72 100.75 208.16C101.52 208.59 105.58 210.93 109.77 213.36C113.96 215.79 122.07 220.49 127.8 223.8C133.53 227.1 140.04 230.88 142.26 232.18C144.48 233.48 146.86 234.85 147.55 235.22C148.23 235.6 149.98 236.6 151.43 237.45C152.89 238.29 156.28 240.27 158.98 241.84C161.67 243.42 163.94 244.7 164.03 244.7C164.11 244.7 164.18 241.61 164.18 230.99L162.24 229.93C161.17 229.35 158.62 227.9 156.57 226.71C154.51 225.51 146.96 221.12 139.77 216.96C132.59 212.79 124.4 208.05 121.58 206.42C118.76 204.79 114.84 202.53 112.88 201.38C110.91 200.24 107.38 198.19 105.02 196.83C102.67 195.47 100.8 194.22 100.85 194.05C100.91 193.87 101.71 193.57 102.64 193.36C104.32 192.99 104.33 192.99 106.5 194.26C107.7 194.96 109.31 195.88 110.08 196.32C110.85 196.75 114.91 199.1 119.1 201.53C123.29 203.97 129.09 207.33 132 209.02C134.91 210.7 138.06 212.52 139 213.06C139.94 213.6 144.76 216.41 149.72 219.29C154.68 222.17 159.93 225.21 161.39 226.05C162.84 226.89 164.06 227.57 164.11 227.56C164.15 227.56 164.18 223.73 164.17 210.57L161.61 209.15C160.2 208.37 154.51 205.09 148.95 201.86C143.39 198.63 138.35 195.71 137.75 195.37C137.15 195.04 134.57 193.53 132 192.02C129.43 190.52 126.01 188.52 124.38 187.6C122.76 186.67 121.43 185.73 121.43 185.5C121.43 185.28 121.93 184.8 123.68 183.76L126.59 185.45C128.2 186.38 136.44 191.16 144.9 196.07C153.37 200.98 161.07 205.44 162.01 205.98C162.95 206.52 163.82 206.97 163.95 206.97C164.08 206.98 164.18 192.6 164.18 175.03C164.18 157.46 164.15 143.08 164.11 143.07C164.06 143.06 161.3 144.63 157.96 146.54C154.63 148.45 150.71 150.71 149.26 151.55C147.8 152.4 146.5 152.98 146.37 152.84C146.23 152.7 146.31 151.89 146.98 149.47L152.55 146.24C155.61 144.46 159.48 142.22 164.17 139.5L164.18 126.64C164.18 119.56 164.18 113.71 164.18 113.62C164.18 113.54 162.89 114.22 161.31 115.13C159.73 116.05 156.26 118.07 153.61 119.63C150.96 121.18 148.58 122.54 148.33 122.65C147.98 122.79 147.76 122.5 147.48 121.51C147.28 120.77 147.21 120.07 147.33 119.95C147.45 119.82 151.26 117.56 164.03 110.13L164.11 97.46C164.15 90.49 164.11 84.79 164.03 84.79C163.94 84.79 162.37 85.65 160.53 86.71C158.69 87.77 155.09 89.85 152.52 91.34C149.96 92.83 146.04 95.11 143.82 96.4C141.59 97.69 139.67 98.69 139.54 98.63C139.41 98.56 139.71 97.63 141.08 94.61L147.11 91.1C150.43 89.18 155.63 86.16 164.17 81.2L164.18 74.42C164.18 69.28 164.28 67.61 164.57 67.51C164.79 67.44 165.52 67.52 167.45 67.99L167.37 158.84C167.31 231.27 167.21 249.69 166.9 249.69C166.69 249.69 164.21 248.34 161.39 246.7C158.56 245.06 155.69 243.39 155.01 243C154.33 242.61 150.9 240.65 147.39 238.63C143.89 236.61 140.88 234.86 140.71 234.72C140.54 234.59 139.28 233.86 137.91 233.09C136.54 232.32 132.76 230.16 129.51 228.27C126.26 226.39 117.59 221.37 110.23 217.13C102.88 212.89 95.63 208.69 94.13 207.81C92.63 206.93 90.68 205.81 88.16 204.45L85.67 205.92C84.3 206.73 82.62 207.7 81.94 208.08C81.25 208.45 76.63 211.11 71.67 213.99C66.72 216.87 61.4 219.95 59.86 220.85C58.32 221.75 53.7 224.41 49.6 226.78C45.49 229.14 41.5 231.45 40.73 231.92C39.97 232.38 37.38 233.89 34.98 235.27C32.59 236.65 25.91 240.53 20.13 243.89C13.21 247.92 9.59 249.87 9.48 249.61C9.4 249.4 9.29 208.47 9.17 68.11L10.26 67.75C10.86 67.56 11.52 67.38 11.74 67.36ZM31.56 71.75C34.13 71.73 36.4 71.81 36.61 71.93C36.82 72.06 39.67 78.69 42.93 86.66C46.19 94.63 50.31 104.73 52.09 109.1C53.86 113.47 56.16 119.16 57.21 121.73C58.26 124.3 60.32 129.35 61.79 132.95C63.26 136.55 65.54 142.16 66.85 145.42C68.17 148.68 69.41 151.66 69.61 152.04C69.84 152.51 70.25 152.75 70.82 152.75C71.29 152.76 71.9 152.51 72.17 152.21C72.44 151.9 74.32 147.79 76.34 143.08C78.36 138.37 80.53 133.32 81.16 131.86C81.8 130.4 83.04 127.52 83.92 125.47C84.8 123.41 85.52 121.55 85.52 121.34C85.52 121.12 84.97 119.65 84.3 118.06C83.64 116.48 79.81 107.54 75.79 98.19C71.78 88.85 67.71 79.38 66.75 77.15C65.44 74.1 65.09 72.96 65.31 72.55C65.58 72.06 66.26 72.01 72.45 72.01C77.62 72.01 79.34 72.1 79.48 72.4C79.58 72.61 79.42 73.49 79.12 74.35C78.81 75.2 78.49 76 78.39 76.12C78.29 76.24 76.9 76.38 75.3 76.43C73.43 76.49 72.3 76.67 72.11 76.92C71.92 77.18 74.19 82.85 79.03 94.22C82.99 103.52 86.56 111.86 86.96 112.76C87.37 113.69 87.89 114.4 88.16 114.4C88.41 114.4 88.78 114.09 88.98 113.7C89.18 113.31 91.26 108.58 93.6 103.18C95.95 97.78 99.44 89.71 101.36 85.26C103.92 79.32 104.76 77.07 104.5 76.84C104.3 76.67 103.13 76.51 101.9 76.48C100.67 76.45 99.42 76.42 99.12 76.4C98.77 76.38 98.28 75.73 97.76 74.58C97.32 73.59 97.04 72.61 97.14 72.4C97.28 72.1 99.03 72.01 104.33 72.01C110.27 72.01 111.34 72.08 111.48 72.48C111.56 72.73 110.01 76.69 108.03 81.28C106.04 85.87 103.75 91.16 102.93 93.05C102.1 94.93 100.35 98.93 99.03 101.93C97.72 104.93 96.5 107.74 96.34 108.17C96.17 108.6 94.14 113.29 91.82 118.61C89.51 123.92 85.58 132.97 83.1 138.72C80.63 144.46 78 150.56 77.27 152.28C76.33 154.5 76.03 155.55 76.22 155.94C76.47 156.43 77.06 156.48 87.07 156.48L87.88 154.69C88.33 153.71 91.42 146.59 94.76 138.87C98.1 131.16 101.43 123.44 102.16 121.73C102.89 120.01 104.08 117.28 104.79 115.65C105.51 114.02 106.9 110.79 107.89 108.48C108.88 106.16 111.12 100.97 112.87 96.95C114.62 92.92 117.59 86.04 119.47 81.67C121.35 77.3 123.09 73.34 123.33 72.86C123.73 72.06 123.89 72.01 125.78 72.01C127.09 72.01 127.87 72.14 127.99 72.4C128.09 72.61 127.54 74.26 126.78 76.06C126.02 77.86 123.75 83.12 121.74 87.75C119.74 92.38 117.5 97.57 116.77 99.28C116.03 101 114.22 105.21 112.73 108.63C111.24 112.06 109.11 116.97 108 119.54C106.9 122.12 105.8 124.64 105.57 125.16C105.34 125.67 104.7 127.14 104.16 128.43C103.61 129.71 102.98 131.19 102.75 131.7C102.53 132.22 101.16 135.37 99.72 138.72C98.28 142.06 96.09 147.11 94.86 149.94C93.62 152.77 92.66 155.36 92.72 155.7C92.82 156.29 93.11 156.33 97.8 156.42C101.47 156.48 102.91 156.4 103.3 156.1C103.6 155.88 106.72 148.97 110.25 140.74C113.78 132.51 117.91 122.9 119.42 119.39C120.93 115.87 124.69 107.11 127.79 99.91C130.89 92.71 134.85 83.49 139.77 72.02L141.17 71.81C141.94 71.7 145.02 71.69 148.01 71.79C151.24 71.91 153.58 72.12 153.77 72.32C153.98 72.55 153.87 73.24 152.79 76.22L147.99 76.29C144.55 76.33 143.1 76.47 142.86 76.75C142.67 76.97 140.87 81.01 138.85 85.72C136.83 90.44 132.94 99.49 130.21 105.83C127.47 112.17 124.92 118.13 124.54 119.08C124.15 120.02 123.34 121.91 122.74 123.29C122.14 124.66 118.34 133.49 114.28 142.92C110.23 152.35 106.75 160.25 106.55 160.47C106.26 160.79 102.38 160.87 68.41 160.85L67.67 159.21C67.26 158.31 65.74 154.63 64.28 151.03C62.82 147.43 59.71 139.78 57.37 134.04C55.02 128.3 52.51 122.12 51.78 120.32C51.04 118.52 49.39 114.46 48.11 111.28C46.83 108.11 44.31 101.94 42.52 97.57C40.73 93.2 38.19 86.95 36.87 83.7C35.55 80.44 34.27 77.46 34.02 77.07C33.6 76.4 33.38 76.37 24.1 76.22L23.36 74.66C22.85 73.56 22.72 72.96 22.93 72.63C23.11 72.34 23.94 72.09 25.06 71.98C26.07 71.88 29 71.78 31.56 71.75Z" />
		<path class="shp3" d="M72.3 71.92C72.98 71.99 74.17 71.99 74.94 71.92C75.71 71.86 75.15 71.8 73.7 71.8C72.24 71.8 71.61 71.86 72.3 71.92ZM101.22 71.93C103.1 71.98 106.04 71.98 107.75 71.93C109.46 71.87 107.92 71.83 104.33 71.83C100.73 71.83 99.33 71.87 101.22 71.93ZM26.74 76.6C27.85 76.66 29.81 76.66 31.1 76.6C32.38 76.54 31.47 76.5 29.07 76.49C26.68 76.49 25.63 76.54 26.74 76.6ZM142.69 76.92C142.3 77.41 142.32 77.42 142.82 77.08C143.17 76.84 144.95 76.67 147.64 76.6L151.9 76.51C143.64 76.38 143.06 76.44 142.69 76.92ZM134.85 106.22C134.61 106.69 133.9 108.34 133.26 109.88C132.62 111.42 131.84 113.25 131.52 113.93C131.2 114.62 130.6 116.02 130.18 117.05C129.76 118.08 129.04 119.76 128.57 120.79C128.11 121.82 127.53 123.12 127.3 123.68C127.06 124.23 126.68 125.14 126.45 125.7C126.21 126.26 125.88 127.07 125.7 127.49C125.48 128 125.45 129.4 125.61 131.55C125.75 133.35 125.74 136.22 125.59 137.94C125.44 139.65 125.13 141.97 124.89 143.08C124.65 144.19 123.96 146.44 123.34 148.07C122.73 149.7 121.84 151.74 121.36 152.61C120.88 153.49 120.22 154.61 119.89 155.11C119.55 155.61 118.65 156.86 117.88 157.89C117.11 158.92 115.42 160.79 114.13 162.04C112.84 163.3 110.67 165.07 109.3 165.98C107.93 166.9 105.59 168.22 104.09 168.92C102.6 169.62 100.78 170.39 100.05 170.63C99.32 170.86 98.1 171.21 97.33 171.4C96.56 171.59 95.09 171.89 94.06 172.07C93.04 172.24 90.45 172.38 88.31 172.38C86.17 172.38 83.23 172.17 81.78 171.91C80.33 171.66 78.44 171.22 77.58 170.95C76.73 170.68 74.98 170.02 73.7 169.47C72.41 168.93 71.33 168.38 71.29 168.25C71.24 168.12 71 168.02 70.74 168.02C70.49 168.02 68.99 167.14 67.43 166.07C65.86 165 63.59 163.14 62.37 161.94C61.15 160.74 59.31 158.63 58.28 157.26C57.25 155.89 55.84 153.65 55.15 152.28C54.45 150.9 53.59 149.01 53.23 148.07C52.87 147.12 52.3 145.3 51.97 144.01C51.64 142.73 51.27 140.84 51.15 139.81C51.02 138.78 50.94 136.11 50.95 133.88C50.98 129.94 50.96 129.76 49.88 127.03C49.27 125.48 48.38 123.31 47.9 122.19C47.42 121.08 46.5 118.91 45.86 117.36C45.23 115.82 44.53 114.14 44.31 113.62C44.09 113.11 43.47 111.56 42.91 110.19C42.36 108.82 41.75 107.31 41.56 106.84C41.36 106.37 41.06 105.98 40.89 105.98C40.72 105.98 40.22 106.58 39.79 107.31C39.35 108.04 38.41 109.86 37.69 111.36C36.97 112.86 36.39 114.19 36.39 114.32C36.39 114.45 36.12 115.19 35.79 115.96C35.45 116.73 34.94 118.2 34.66 119.23C34.38 120.26 34.01 121.73 33.85 122.51C33.69 123.28 33.36 125.03 33.11 126.4C32.83 127.94 32.66 131 32.65 134.35C32.65 137.53 32.84 141.17 33.11 143.08C33.36 144.88 33.79 147.19 34.05 148.22C34.32 149.25 34.69 150.58 34.88 151.18C35.07 151.78 35.5 153.05 35.84 153.99C36.18 154.93 36.66 156.2 36.91 156.8C37.16 157.4 38 159.15 38.78 160.69C39.55 162.24 40.44 163.78 40.76 164.12C41.08 164.46 41.35 164.85 41.35 164.98C41.35 165.11 41.95 166.09 42.68 167.16C43.41 168.23 44.28 169.41 44.62 169.78C44.96 170.16 46.36 171.71 47.73 173.23C49.1 174.76 50.78 176.44 51.46 176.98C52.15 177.51 52.99 178.21 53.33 178.53C53.67 178.84 54.44 179.44 55.04 179.86C55.64 180.28 56.27 180.74 56.44 180.87C56.61 181.01 57.31 181.48 57.99 181.93C58.68 182.38 60.39 183.36 61.8 184.11C63.21 184.86 64.61 185.6 64.91 185.75C65.21 185.9 65.81 186.17 66.23 186.34C66.66 186.52 67.64 186.9 68.41 187.19C69.18 187.48 70.37 187.91 71.05 188.14C71.74 188.37 73.14 188.78 74.16 189.06C75.19 189.33 77.15 189.76 78.52 190.02C79.88 190.28 83.52 190.57 86.6 190.67C90.96 190.81 92.99 190.74 95.77 190.33C97.74 190.04 100.4 189.53 101.68 189.2C102.96 188.87 104.71 188.39 105.57 188.15C106.42 187.9 108.38 187.17 109.92 186.52C111.46 185.87 112.79 185.26 112.88 185.17C112.97 185.08 113.95 184.53 115.06 183.96C116.17 183.38 118.19 182.16 119.56 181.25C120.93 180.34 122.43 179.23 122.9 178.79C123.37 178.35 123.86 177.99 123.99 178C124.12 178 125.61 176.63 127.3 174.96C128.99 173.28 131.44 170.49 132.74 168.75C134.04 167.02 135.89 164.21 136.85 162.52C137.81 160.83 139.11 158.25 139.73 156.8C140.35 155.34 140.86 153.9 140.86 153.6C140.86 153.3 140.97 153 141.1 152.94C141.22 152.87 141.42 152.49 141.53 152.08C141.65 151.67 142.05 150.15 142.42 148.69C142.79 147.23 143.29 144.64 143.52 142.92C143.76 141.21 143.95 137.35 143.96 134.35C143.96 130.89 143.79 127.93 143.5 126.25C143.24 124.79 142.75 122.48 142.4 121.1C142.05 119.73 141.55 117.98 141.28 117.21C141.02 116.44 140.65 115.45 140.48 115.02C140.3 114.6 140.05 113.97 139.92 113.62C139.79 113.28 138.93 111.49 138.02 109.64C137.1 107.8 136.25 106.29 136.12 106.29C135.99 106.29 135.89 106.09 135.89 105.83C135.89 105.57 135.75 105.36 135.58 105.36C135.41 105.36 135.08 105.75 134.85 106.22Z" />
		<path class="shp2" d="M45.55 151.52C45.04 151.68 44.23 152.2 43.75 152.67C43.28 153.14 42.74 154.08 42.56 154.77C42.33 155.64 42.33 156.34 42.56 157.11C42.74 157.71 43.27 158.59 43.75 159.06C44.23 159.53 45.18 160.05 45.87 160.2C46.61 160.37 47.48 160.36 48.04 160.19C48.56 160.03 49.37 159.52 49.84 159.05C50.32 158.58 50.85 157.67 51.01 157.03C51.2 156.3 51.2 155.42 51.02 154.69C50.85 154 50.28 153.11 49.62 152.51C49.01 151.95 48.33 151.49 48.12 151.49C47.91 151.49 47.45 151.43 47.11 151.36C46.77 151.28 46.07 151.36 45.55 151.52ZM128.58 151.53C128.07 151.68 127.26 152.2 126.78 152.67C126.3 153.14 125.78 154.05 125.61 154.69C125.42 155.44 125.42 156.28 125.61 157.03C125.78 157.67 126.3 158.59 126.78 159.06C127.26 159.53 128.14 160.03 128.73 160.17C129.33 160.31 130.31 160.31 130.91 160.18C131.51 160.04 132.39 159.54 132.87 159.06C133.35 158.59 133.89 157.71 134.06 157.11C134.29 156.34 134.29 155.64 134.06 154.77C133.88 154.08 133.35 153.15 132.87 152.7C132.39 152.25 131.65 151.78 131.22 151.66C130.8 151.54 130.24 151.4 129.98 151.35C129.72 151.29 129.09 151.37 128.58 151.53ZM55.7 164.82C55.53 165.46 54.96 167.6 54.44 169.58C53.92 171.55 53.6 173.25 53.72 173.37C53.85 173.48 54.9 172.96 56.05 172.2C57.2 171.44 58.29 170.82 58.46 170.82C58.63 170.82 58.77 171.07 58.77 171.37C58.76 171.67 58.47 172.9 58.13 174.1C57.78 175.3 57.53 176.37 57.59 176.48C57.64 176.6 59.6 175.54 61.95 174.15C64.3 172.75 66.23 171.43 66.23 171.21C66.23 171 66.02 170.75 65.77 170.67C65.51 170.58 64.25 171.14 62.97 171.91C61.69 172.69 60.46 173.35 60.25 173.39C60.03 173.44 59.87 173.33 59.89 173.16C59.91 172.99 60.26 171.69 60.67 170.28C61.08 168.87 61.31 167.65 61.18 167.56C61.05 167.47 60 168.03 58.85 168.8C57.69 169.57 56.57 170.2 56.36 170.2C56.15 170.2 55.97 169.95 55.98 169.65C55.98 169.35 56.26 168.06 56.59 166.77C56.93 165.48 57.22 164.4 57.23 164.37C57.24 164.33 56.97 164.15 56.63 163.97C56.08 163.68 55.98 163.78 55.7 164.82ZM115.98 166.23C115.41 166.61 114.68 167.35 114.37 167.86C114.04 168.41 113.8 169.44 113.79 170.36C113.77 171.51 113.96 172.2 114.51 173C114.92 173.61 115.8 174.36 116.47 174.68C117.37 175.11 118.11 175.23 119.25 175.1C120.58 174.96 120.98 174.75 121.97 173.66C122.96 172.58 123.14 172.16 123.14 170.98C123.14 170.21 122.89 169.15 122.59 168.64C122.29 168.12 121.98 167.7 121.89 167.7C121.81 167.7 121.14 168.12 120.42 168.64C119.69 169.15 119.1 169.79 119.1 170.04C119.1 170.3 119.24 170.58 119.41 170.67C119.58 170.75 120.14 170.54 120.65 170.2L121.58 169.58C121.82 170.54 121.81 171.14 121.7 171.52C121.6 171.91 121.21 172.54 120.85 172.93C120.48 173.32 119.83 173.71 119.41 173.8C118.98 173.89 118.21 173.81 117.7 173.62C117.18 173.43 116.44 172.97 116.06 172.59C115.67 172.22 115.27 171.42 115.17 170.82C115.07 170.19 115.17 169.35 115.41 168.83C115.64 168.33 116.22 167.67 116.69 167.35C117.16 167.03 118.03 166.77 118.63 166.77C119.51 166.77 119.72 166.65 119.72 166.15C119.72 165.62 119.51 165.52 118.37 165.52C117.5 165.52 116.67 165.77 115.98 166.23ZM107.51 171.63L105.41 172.69C108.38 178.85 109.32 180.76 109.43 180.9C109.53 181.04 110.63 180.65 111.87 180.04C113.11 179.43 114.12 178.79 114.12 178.62C114.12 178.44 113.95 178.22 113.73 178.12C113.52 178.01 112.68 178.22 111.87 178.58C111.05 178.94 110.34 179.2 110.27 179.16C110.21 179.12 109.93 178.63 109.65 178.07C109.37 177.51 109.14 176.92 109.14 176.75C109.14 176.57 109.78 176.12 110.55 175.73C111.42 175.3 111.95 174.82 111.95 174.49C111.95 174.19 111.73 173.94 111.48 173.94C111.22 173.94 110.49 174.21 109.84 174.54C109.2 174.87 108.52 175.05 108.34 174.93C108.15 174.81 107.83 174.4 107.64 174.02C107.31 173.37 107.39 173.26 108.83 172.54C109.88 172.02 110.36 171.59 110.31 171.24C110.27 170.95 110.09 170.68 109.92 170.64C109.75 170.6 108.67 171.05 107.51 171.63ZM66.58 175.69C65.56 177.86 64.72 179.83 64.7 180.06C64.69 180.3 64.92 180.56 65.22 180.65C65.52 180.73 65.78 180.77 65.8 180.72C65.81 180.68 66.69 178.78 67.74 176.51C69.57 172.57 69.63 172.37 69.04 172.06C68.48 171.76 68.27 172.07 66.58 175.69ZM72.41 173.51C72.3 173.66 71.67 175.72 71.01 178.09C69.97 181.82 69.87 182.44 70.28 182.69C70.53 182.84 70.85 182.97 70.98 182.98C71.1 182.98 71.5 181.96 71.85 180.72C72.2 179.48 72.55 178.21 72.63 177.91C72.7 177.61 72.87 177.36 73 177.36C73.12 177.35 73.64 178.09 74.13 179C74.63 179.9 75.61 181.6 76.31 182.76C77.01 183.93 77.67 184.77 77.79 184.63C77.9 184.49 78.49 182.49 79.1 180.17C79.72 177.86 80.22 175.86 80.22 175.73C80.22 175.6 79.91 175.53 79.53 175.58C78.93 175.64 78.73 176.02 78.18 178.15C77.77 179.74 77.38 180.64 77.11 180.64C76.87 180.64 76.13 179.66 75.47 178.46C74.8 177.26 73.88 175.6 73.43 174.76C72.97 173.93 72.51 173.37 72.41 173.51ZM99.51 174.64C98.92 174.82 98.46 175.12 98.51 175.31C98.55 175.5 99.12 177.48 99.77 179.71C100.64 182.64 101.11 183.78 101.48 183.84C101.76 183.88 102.06 183.77 102.15 183.6C102.23 183.43 102.1 182.56 101.84 181.66C101.59 180.76 101.41 180.02 101.45 180.02C101.49 180.02 102.05 179.74 102.7 179.4C103.34 179.05 104.02 178.42 104.19 177.99C104.38 177.54 104.41 176.83 104.26 176.31C104.13 175.81 103.66 175.13 103.24 174.81C102.81 174.49 102.04 174.25 101.53 174.27C101.01 174.3 100.11 174.46 99.51 174.64ZM94.53 175.8C94.12 176.06 94.15 176.62 94.78 180.55C95.17 183 95.52 185.04 95.55 185.09C95.59 185.13 95.86 185.1 96.16 185.01C96.46 184.92 96.71 184.57 96.71 184.23C96.71 183.88 96.5 182.24 96.24 180.56C95.98 178.89 95.73 177.07 95.67 176.51C95.61 175.95 95.44 175.5 95.28 175.5C95.12 175.51 94.79 175.64 94.53 175.8Z" />
		<path class="shp3" d="M100.67 175.69C100.19 175.8 100.17 175.96 100.47 176.98C100.65 177.62 100.93 178.29 101.07 178.46C101.25 178.66 101.62 178.58 102.13 178.23C102.57 177.93 102.93 177.44 102.94 177.14C102.94 176.84 102.7 176.35 102.39 176.05C102.09 175.76 101.7 175.53 101.53 175.54C101.36 175.56 100.97 175.62 100.67 175.69Z" />
		<path class="shp2" d="M82.97 175.97C82.88 176.14 82.79 178.35 82.76 180.88L82.71 185.47C84.27 185.47 84.27 185.46 84.27 182.51C84.27 180.88 84.37 179.54 84.5 179.54C84.63 179.53 86.03 180.93 87.61 182.65C89.19 184.38 90.63 185.72 90.8 185.63C90.99 185.54 91.11 183.6 91.11 180.8C91.11 176.33 91.08 176.12 90.49 176.12C89.92 176.12 89.84 176.41 89.63 179.24C89.5 180.96 89.36 182.36 89.32 182.36C89.28 182.36 88.56 181.62 87.73 180.72C86.9 179.82 85.53 178.31 84.67 177.37C83.82 176.43 83.05 175.79 82.97 175.97Z" />
	</g>
</svg>